<svg width="64" height="64" viewBox="0 0 64 64" fill="none" xmlns="http://www.w3.org/2000/svg">
<rect x="64" y="64" width="64" height="64" rx="32" transform="rotate(180 64 64)" fill="#F6A717"/>
<g filter="url(#filter0_d_5678_449)">
<rect x="58.666" y="58.667" width="53.3333" height="53.3333" rx="26.6667" transform="rotate(-180 58.666 58.667)" fill="white"/>
<g opacity="0.2">
<path d="M29.8727 17.225C29.8245 17.2469 29.7018 17.3389 29.6054 17.431C29.3775 17.6413 29.2942 17.9218 29.2548 18.5879C29.2416 18.8421 29.2022 19.2015 29.1671 19.3943C29.1321 19.5827 29.1058 19.8194 29.1058 19.9246C29.1058 20.0254 29.0795 20.1305 29.0532 20.1525C28.9611 20.2182 28.4922 20.3847 28.387 20.3847C28.3345 20.3847 28.2556 20.411 28.2074 20.4461C28.1592 20.4768 28.0627 20.5162 27.9882 20.5337C27.8699 20.5644 27.3922 20.7397 27.2257 20.823C27.1205 20.8712 26.7743 21.0289 26.6516 21.0815C26.5508 21.1254 26.507 21.1473 26.3142 21.2612C26.2703 21.2875 26.1739 21.3357 26.095 21.3708C26.0205 21.4058 25.946 21.454 25.9285 21.4803C25.8978 21.5329 25.5998 21.5417 25.5998 21.4891C25.5998 21.4716 25.4552 21.3445 25.2843 21.213C25.109 21.0859 24.9249 20.9413 24.8767 20.8975C24.8285 20.8536 24.6401 20.7046 24.4604 20.5688C24.2807 20.4329 24.1142 20.2971 24.0879 20.2664C23.9696 20.1305 23.6891 20.0341 23.3998 20.0341C23.1194 20.0341 23.0974 20.0429 22.8739 20.2226C22.4269 20.5907 20.262 22.7819 20.17 22.9616C20.0429 23.207 20.0473 23.5664 20.1744 23.7899C20.2708 23.9608 20.5337 24.3158 20.6214 24.3946C20.7046 24.4692 21.0859 24.9468 21.0859 24.9775C21.0859 24.995 21.1779 25.1046 21.2875 25.2273C21.625 25.5954 21.6337 25.6305 21.4584 25.9548C21.3752 26.1082 21.2086 26.4412 21.0859 26.6954C20.9632 26.9496 20.8361 27.2126 20.8011 27.2783C20.766 27.3484 20.7353 27.4273 20.7353 27.4536C20.7353 27.4843 20.6959 27.5807 20.6477 27.6727C20.5995 27.7604 20.56 27.8699 20.56 27.9094C20.5556 27.9532 20.5206 28.0671 20.4724 28.1635C20.4242 28.26 20.3891 28.3827 20.3847 28.4309C20.3847 28.4835 20.3365 28.65 20.2795 28.8034C20.1787 29.0751 20.17 29.0839 19.964 29.1364C19.8457 29.1671 19.46 29.2109 19.1007 29.2329C18.7457 29.2591 18.4389 29.2854 18.4214 29.2986C18.4039 29.3074 18.2329 29.338 18.0401 29.3643C17.6238 29.4257 17.4047 29.5528 17.2732 29.8245C17.1899 30.0042 17.1855 30.0874 17.1855 31.9982C17.1855 33.9089 17.1899 33.9922 17.2732 34.1719C17.4047 34.4436 17.6282 34.575 18.0357 34.6276C18.2198 34.6495 18.3907 34.6802 18.4126 34.6934C18.4345 34.7065 18.7369 34.7372 19.0788 34.7591C19.425 34.7854 19.8106 34.8248 19.9421 34.8555C20.1612 34.9037 20.1787 34.9169 20.262 35.1053C20.3102 35.2149 20.3628 35.3946 20.3847 35.5041C20.4066 35.6137 20.4548 35.7583 20.4899 35.8328C20.5293 35.9029 20.56 36.0037 20.56 36.0563C20.56 36.1045 20.5907 36.1834 20.6258 36.2316C20.6608 36.2754 20.6915 36.3412 20.6915 36.3762C20.6915 36.4113 20.7266 36.5208 20.7748 36.6173C20.8186 36.7181 20.9106 36.9153 20.972 37.0599C21.0377 37.2045 21.1078 37.3535 21.1297 37.3886C21.1516 37.4236 21.2437 37.5989 21.3313 37.7742C21.4234 37.9495 21.511 38.1029 21.5329 38.116C21.5504 38.1292 21.568 38.1949 21.568 38.2694C21.568 38.3658 21.4497 38.5455 21.0509 39.0451C20.766 39.4001 20.4811 39.7463 20.4154 39.8164C20.078 40.1758 19.9859 40.6579 20.1875 40.9953C20.2445 41.0961 20.8712 41.7535 21.5767 42.459C22.9178 43.7957 23.1281 43.9622 23.4568 43.9622C23.6409 43.9622 23.9652 43.8088 24.1755 43.6204C24.2456 43.5546 24.456 43.3925 24.6357 43.2566C24.8154 43.1208 25.0038 42.9718 25.052 42.9236C25.2448 42.7439 25.6918 42.4284 25.7576 42.4284C25.8146 42.4284 26.2616 42.6606 26.5201 42.8272C26.5552 42.8491 26.6165 42.8797 26.6516 42.8929C26.7568 42.9367 27.046 43.0682 27.3177 43.1909C27.4536 43.2523 27.5894 43.3048 27.6157 43.3048C27.6464 43.3048 27.7209 43.3311 27.7823 43.3662C27.9444 43.4451 28.2994 43.5678 28.5141 43.6116C28.6105 43.6335 28.7815 43.6905 28.8998 43.7431C29.1014 43.8307 29.1058 43.8395 29.1058 44.0279C29.1058 44.1331 29.1364 44.3742 29.1715 44.5626C29.2066 44.7511 29.2372 45.0228 29.2372 45.1674C29.2372 45.5092 29.3074 45.9913 29.395 46.2498C29.4432 46.4032 29.5177 46.5084 29.6623 46.6223L29.8639 46.7889L34.0229 46.8152L34.2113 46.6925C34.3209 46.6267 34.4173 46.5391 34.4304 46.4996C34.4436 46.4602 34.4918 46.3813 34.54 46.3287C34.6013 46.2542 34.6276 46.1622 34.6276 46C34.6276 45.873 34.6671 45.5443 34.7153 45.2726C34.7635 44.9965 34.8029 44.6327 34.8029 44.4662C34.8029 43.9797 34.8818 43.7913 35.079 43.7869C35.1272 43.7869 35.2236 43.7562 35.2981 43.7212C35.377 43.6861 35.5173 43.6379 35.6137 43.616C35.8372 43.559 36.1746 43.4495 36.4332 43.3443C36.5471 43.3005 36.6655 43.261 36.7005 43.261C36.7356 43.261 36.7882 43.2303 36.8188 43.1953C36.8495 43.1602 36.9021 43.1296 36.9416 43.1296C36.9985 43.1296 37.1782 43.0419 37.9933 42.63C38.081 42.5861 38.1643 42.5335 38.1774 42.516C38.2563 42.3933 38.6288 42.5817 38.9881 42.9236C39.0364 42.9718 39.2204 43.1208 39.4001 43.2566C39.5798 43.3925 39.7901 43.559 39.8603 43.6248C39.9348 43.6905 40.0838 43.7957 40.1889 43.857C40.3555 43.9578 40.4168 43.971 40.6929 43.9534C40.9383 43.9447 41.0347 43.9184 41.1355 43.8395C41.3328 43.6861 43.6248 41.4073 43.8132 41.175C43.9622 40.9953 43.9841 40.9383 43.9973 40.6929C44.0104 40.4694 43.9973 40.3774 43.9228 40.2328C43.8395 40.075 43.0112 39.0101 42.8841 38.9005C42.8578 38.8742 42.7527 38.7427 42.6519 38.6025L42.4634 38.3483L42.5467 38.23C42.665 38.0503 42.7132 37.9627 42.8885 37.6296C42.9762 37.4587 43.0638 37.2921 43.0857 37.2571C43.1427 37.1563 43.2917 36.8101 43.3268 36.6874C43.3443 36.626 43.3881 36.5384 43.4188 36.4902C43.4538 36.442 43.4801 36.3762 43.4801 36.3368C43.4845 36.3017 43.5196 36.1922 43.5678 36.0957C43.616 35.9993 43.6511 35.8898 43.6554 35.8459C43.6554 35.8065 43.6949 35.6706 43.7387 35.5392C43.7869 35.4121 43.8351 35.2368 43.8526 35.1448C43.8921 34.9037 44.0236 34.8424 44.5933 34.7942C45.0841 34.7547 45.5399 34.7021 46.0658 34.6232C46.4164 34.5707 46.6443 34.4217 46.767 34.1719C46.8502 33.9922 46.8546 33.9089 46.8546 31.9982C46.8546 30.0874 46.8502 30.0042 46.767 29.8245C46.6486 29.5791 46.412 29.4257 46.0877 29.3731C45.553 29.2898 45.1104 29.2372 44.6108 29.1978C44.0148 29.1496 43.8921 29.0926 43.8526 28.8516C43.8351 28.7596 43.7957 28.6018 43.7606 28.4922C43.7256 28.3827 43.6774 28.2249 43.6554 28.1372C43.6335 28.054 43.5853 27.9225 43.5459 27.8524C43.5108 27.7823 43.4801 27.699 43.4801 27.6727C43.4801 27.6245 43.4276 27.493 43.2347 27.0679C43.204 26.9934 43.1558 26.8883 43.1295 26.8269C43.1076 26.7655 43.0682 26.6867 43.0463 26.6516C43.0244 26.6165 42.9849 26.5377 42.9586 26.4763C42.9323 26.415 42.8622 26.2879 42.8009 26.1914C42.7439 26.095 42.6694 25.9548 42.6343 25.8803C42.5993 25.8058 42.5467 25.7269 42.5204 25.7138C42.459 25.6743 42.5029 25.5691 42.6825 25.3369C42.8315 25.1528 42.8754 25.1002 43.0463 24.9118C43.0857 24.868 43.1734 24.754 43.2435 24.6576C43.3136 24.5568 43.467 24.3684 43.5853 24.2325C43.9491 23.8118 44.0192 23.6453 43.9929 23.2859C43.9754 23.058 43.9491 22.9835 43.8176 22.8257C43.6379 22.6066 41.324 20.3058 41.1355 20.1568C40.9383 20.0035 40.4344 19.9859 40.2065 20.1262C40.0618 20.2138 38.9794 21.0552 38.9224 21.1254C38.9093 21.1385 38.7866 21.2349 38.6507 21.3401C38.4009 21.5242 38.2782 21.5636 38.1949 21.4847C38.173 21.4584 38.0591 21.3883 37.9364 21.3269C37.818 21.2612 37.669 21.1823 37.6077 21.1516C37.371 21.0246 36.74 20.7309 36.6173 20.6915C36.5471 20.6696 36.3543 20.6038 36.1834 20.5381C36.0169 20.4768 35.7802 20.3979 35.6575 20.3672C35.5392 20.3365 35.3946 20.2883 35.342 20.262C35.2894 20.2313 35.1886 20.2094 35.1185 20.2094C34.8906 20.2094 34.8336 20.0911 34.7985 19.5389C34.781 19.2716 34.7328 18.8728 34.6977 18.658C34.6583 18.4433 34.6276 18.1628 34.6276 18.0357C34.6276 17.7596 34.4699 17.4879 34.1981 17.3039L34.0316 17.1855L31.9938 17.1899C30.8763 17.1899 29.9209 17.2075 29.8727 17.225Z" fill="#F6A717"/>
<path d="M31.2093 26.4369C31.1261 26.4588 30.9201 26.507 30.7492 26.542C30.438 26.6034 30.0568 26.7217 29.9384 26.7918C29.9034 26.8138 29.8332 26.8401 29.785 26.8576C29.5396 26.9365 28.9217 27.3002 28.593 27.5588C28.238 27.8349 27.6157 28.4353 27.6157 28.4966C27.6157 28.5141 27.5369 28.6281 27.4404 28.7508C27.344 28.8735 27.2432 29.0181 27.2169 29.0751C27.195 29.1277 27.0767 29.3556 26.9584 29.5835C26.8357 29.807 26.7392 30.0261 26.7392 30.0655C26.7349 30.105 26.6998 30.2145 26.6516 30.3109C26.6034 30.4074 26.5683 30.5476 26.564 30.6221C26.564 30.6966 26.5333 30.8456 26.4938 30.9508C26.4325 31.1042 26.4193 31.3101 26.4193 31.9982C26.4193 32.6862 26.4325 32.8922 26.4938 33.0456C26.5333 33.1508 26.564 33.2998 26.564 33.3743C26.5683 33.4488 26.6034 33.589 26.6516 33.6854C26.6998 33.7818 26.7349 33.8958 26.7392 33.9352C26.7392 34.0535 27.252 35.0089 27.4404 35.2499C27.5369 35.3683 27.6157 35.4822 27.6157 35.4997C27.6157 35.5611 28.238 36.1615 28.5843 36.4288C28.9699 36.7312 29.0356 36.7706 29.5002 36.9941C29.6579 37.0687 29.8157 37.1475 29.8508 37.1738C29.8858 37.1957 29.9384 37.222 29.9603 37.2264C29.9866 37.2352 30.105 37.279 30.2233 37.3184C30.346 37.3623 30.5476 37.4149 30.6747 37.4368C30.8018 37.4587 31.0165 37.5069 31.1524 37.542C31.4504 37.6208 32.5986 37.634 32.8308 37.5595C32.9141 37.5332 33.1245 37.4894 33.291 37.4543C33.4619 37.4192 33.6986 37.3623 33.8169 37.3184C34.1806 37.1914 35.0045 36.775 35.2499 36.591C35.377 36.4989 35.5304 36.385 35.5874 36.3455C35.789 36.1965 36.3105 35.6531 36.5471 35.3288C36.7969 34.9958 37.2352 34.1894 37.3009 33.9484C37.3228 33.8739 37.3666 33.7292 37.4061 33.6197C37.5858 33.0763 37.6296 32.7739 37.6296 31.9982C37.6296 31.2225 37.5858 30.9201 37.4061 30.3767C37.3666 30.2671 37.3228 30.1181 37.3009 30.048C37.2352 29.8026 36.7969 29.0006 36.534 28.6456C36.293 28.3213 35.8196 27.8261 35.583 27.6508C35.526 27.6114 35.377 27.4974 35.2499 27.4054C35.0045 27.2213 34.1806 26.805 33.8169 26.6779C33.6986 26.6341 33.4619 26.5771 33.291 26.542C33.1245 26.507 32.9141 26.4632 32.8308 26.4369C32.6468 26.3799 31.4241 26.3799 31.2093 26.4369Z" fill="white"/>
</g>
<path d="M12.5734 35.8512C12.013 35.8512 11.4952 35.7589 11.0199 35.5745C10.5517 35.383 10.1439 35.117 9.79627 34.7765C9.44868 34.4289 9.17912 34.021 8.98759 33.5528C8.80315 33.0775 8.71094 32.5562 8.71094 31.9887C8.71094 31.4354 8.81025 30.9246 9.00887 30.4564C9.20749 29.9883 9.4806 29.5839 9.82819 29.2434C10.1829 28.8958 10.5978 28.6263 11.0731 28.4348C11.5555 28.2432 12.0804 28.1475 12.6479 28.1475C13.0026 28.1475 13.3502 28.1936 13.6907 28.2858C14.0312 28.378 14.3468 28.5163 14.6377 28.7008C14.9356 28.8781 15.191 29.0909 15.4038 29.3392L14.2972 30.6054C14.1482 30.4494 13.9886 30.3146 13.8184 30.2011C13.6552 30.0805 13.4743 29.9883 13.2757 29.9244C13.0771 29.8606 12.8643 29.8287 12.6373 29.8287C12.3535 29.8287 12.084 29.8819 11.8286 29.9883C11.5803 30.0876 11.3604 30.233 11.1689 30.4245C10.9845 30.609 10.839 30.836 10.7326 31.1055C10.6262 31.3751 10.573 31.6766 10.573 32.01C10.573 32.3363 10.6262 32.6342 10.7326 32.9038C10.839 33.1662 10.988 33.3932 11.1795 33.5847C11.3711 33.7763 11.6016 33.9217 11.8712 34.021C12.1478 34.1203 12.4528 34.17 12.7862 34.17C13.0132 34.17 13.2296 34.138 13.4353 34.0742C13.641 34.0104 13.829 33.9252 13.9993 33.8188C14.1766 33.7053 14.3327 33.5777 14.4674 33.4358L15.34 34.819C15.1626 35.0177 14.925 35.195 14.627 35.3511C14.3362 35.5071 14.0099 35.6313 13.6481 35.7235C13.2934 35.8086 12.9352 35.8512 12.5734 35.8512Z" fill="#363636"/>
<path d="M24.0059 35.7618V28.3135H25.8147V34.1657H29.1346V35.7618H24.0059Z" fill="#363636"/>
<path d="M40.7148 35.7618V28.3135H45.9074V29.8563H42.4705V34.2189H46.0138V35.7618H40.7148ZM41.5661 32.708V31.2396H45.4286V32.708H41.5661Z" fill="#363636"/>
<path d="M32.2363 35.7618V28.3135H33.8537L36.567 32.7293L35.4072 32.7186L38.1524 28.3135H39.7059V35.7618H37.9503V33.4422C37.9503 32.8038 37.9644 32.2292 37.9928 31.7184C38.0283 31.2077 38.085 30.7005 38.1631 30.1968L38.3652 30.7501L36.301 33.9529H35.5987L33.577 30.7714L33.7792 30.1968C33.8572 30.6721 33.9104 31.1616 33.9388 31.6652C33.9743 32.1618 33.992 32.7541 33.992 33.4422V35.7618H32.2363Z" fill="#363636"/>
<path d="M19.0623 28.3364C19.0498 28.3421 19.0179 28.3661 18.9928 28.39C18.9336 28.4447 18.9119 28.5176 18.9017 28.6908C18.8983 28.7569 18.888 28.8503 18.8789 28.9004C18.8698 28.9494 18.8629 29.011 18.8629 29.0383C18.8629 29.0645 18.8561 29.0919 18.8493 29.0976C18.8253 29.1147 18.7034 29.158 18.6761 29.158C18.6624 29.158 18.6419 29.1648 18.6293 29.1739C18.6168 29.1819 18.5917 29.1921 18.5724 29.1967C18.5416 29.2047 18.4174 29.2503 18.3741 29.2719C18.3468 29.2844 18.2568 29.3255 18.2248 29.3391C18.1986 29.3505 18.1872 29.3562 18.1371 29.3858C18.1257 29.3927 18.1006 29.4052 18.0801 29.4143C18.0608 29.4234 18.0414 29.436 18.0368 29.4428C18.0289 29.4565 17.9514 29.4588 17.9514 29.4451C17.9514 29.4405 17.9138 29.4075 17.8693 29.3733C17.8238 29.3403 17.7759 29.3027 17.7634 29.2913C17.7508 29.2799 17.7018 29.2411 17.6551 29.2058C17.6084 29.1705 17.5651 29.1352 17.5583 29.1272C17.5275 29.0919 17.4546 29.0668 17.3794 29.0668C17.3065 29.0668 17.3008 29.0691 17.2427 29.1158C17.1264 29.2115 16.5636 29.7812 16.5396 29.8279C16.5066 29.8918 16.5077 29.9852 16.5408 30.0433C16.5658 30.0877 16.6342 30.18 16.657 30.2005C16.6786 30.2199 16.7778 30.3441 16.7778 30.3521C16.7778 30.3566 16.8017 30.3851 16.8302 30.417C16.9179 30.5127 16.9202 30.5219 16.8746 30.6062C16.853 30.6461 16.8097 30.7327 16.7778 30.7987C16.7459 30.8648 16.7128 30.9332 16.7037 30.9503C16.6946 30.9685 16.6866 30.989 16.6866 30.9959C16.6866 31.0038 16.6764 31.0289 16.6638 31.0528C16.6513 31.0756 16.641 31.1041 16.641 31.1144C16.6399 31.1258 16.6308 31.1554 16.6182 31.1805C16.6057 31.2055 16.5966 31.2374 16.5955 31.25C16.5955 31.2636 16.5829 31.3069 16.5681 31.3468C16.5419 31.4175 16.5396 31.4197 16.4861 31.4334C16.4553 31.4414 16.355 31.4528 16.2616 31.4585C16.1693 31.4653 16.0895 31.4721 16.085 31.4756C16.0804 31.4778 16.036 31.4858 15.9859 31.4927C15.8776 31.5086 15.8206 31.5417 15.7865 31.6123C15.7648 31.659 15.7637 31.6807 15.7637 32.1775C15.7637 32.6742 15.7648 32.6959 15.7865 32.7426C15.8206 32.8133 15.8788 32.8474 15.9847 32.8611C16.0326 32.8668 16.077 32.8748 16.0827 32.8782C16.0884 32.8816 16.167 32.8896 16.2559 32.8953C16.3459 32.9021 16.4462 32.9124 16.4804 32.9204C16.5373 32.9329 16.5419 32.9363 16.5636 32.9853C16.5761 33.0138 16.5898 33.0605 16.5955 33.089C16.6012 33.1175 16.6137 33.1551 16.6228 33.1745C16.6331 33.1927 16.641 33.2189 16.641 33.2326C16.641 33.2451 16.649 33.2656 16.6581 33.2781C16.6672 33.2895 16.6752 33.3066 16.6752 33.3157C16.6752 33.3249 16.6843 33.3533 16.6969 33.3784C16.7083 33.4046 16.7322 33.4559 16.7481 33.4935C16.7652 33.5311 16.7835 33.5698 16.7892 33.579C16.7949 33.5881 16.8188 33.6336 16.8416 33.6792C16.8655 33.7248 16.8883 33.7647 16.894 33.7681C16.8985 33.7715 16.9031 33.7886 16.9031 33.808C16.9031 33.833 16.8723 33.8798 16.7687 34.0097C16.6946 34.102 16.6205 34.192 16.6034 34.2102C16.5157 34.3036 16.4918 34.429 16.5442 34.5167C16.559 34.5429 16.7219 34.7138 16.9054 34.8973C17.254 35.2448 17.3087 35.2881 17.3942 35.2881C17.4421 35.2881 17.5264 35.2482 17.5811 35.1992C17.5993 35.1821 17.654 35.14 17.7007 35.1047C17.7474 35.0693 17.7964 35.0306 17.809 35.0181C17.8591 34.9713 17.9753 34.8893 17.9924 34.8893C18.0072 34.8893 18.1234 34.9497 18.1907 34.993C18.1998 34.9987 18.2157 35.0067 18.2248 35.0101C18.2522 35.0215 18.3274 35.0557 18.398 35.0876C18.4334 35.1035 18.4687 35.1172 18.4755 35.1172C18.4835 35.1172 18.5029 35.124 18.5188 35.1331C18.561 35.1537 18.6533 35.1856 18.7091 35.197C18.7342 35.2026 18.7786 35.2175 18.8094 35.2311C18.8618 35.2539 18.8629 35.2562 18.8629 35.3052C18.8629 35.3325 18.8709 35.3952 18.88 35.4442C18.8891 35.4932 18.8971 35.5638 18.8971 35.6014C18.8971 35.6903 18.9153 35.8157 18.9381 35.8829C18.9507 35.9228 18.97 35.9501 19.0076 35.9797L19.0601 36.023L20.1414 36.0299L20.1904 35.998C20.2189 35.9809 20.2439 35.9581 20.2473 35.9478C20.2508 35.9376 20.2633 35.9171 20.2758 35.9034C20.2918 35.884 20.2986 35.8601 20.2986 35.8179C20.2986 35.7849 20.3089 35.6994 20.3214 35.6288C20.3339 35.557 20.3442 35.4624 20.3442 35.4191C20.3442 35.2927 20.3647 35.2437 20.416 35.2425C20.4285 35.2425 20.4536 35.2346 20.4729 35.2254C20.4935 35.2163 20.5299 35.2038 20.555 35.1981C20.6131 35.1833 20.7008 35.1548 20.7681 35.1274C20.7977 35.1161 20.8284 35.1058 20.8376 35.1058C20.8467 35.1058 20.8604 35.0978 20.8683 35.0887C20.8763 35.0796 20.89 35.0716 20.9002 35.0716C20.915 35.0716 20.9618 35.0488 21.1737 34.9417C21.1965 34.9303 21.2181 34.9167 21.2216 34.9121C21.2421 34.8802 21.3389 34.9292 21.4323 35.0181C21.4449 35.0306 21.4927 35.0693 21.5395 35.1047C21.5862 35.14 21.6409 35.1833 21.6591 35.2004C21.6785 35.2175 21.7172 35.2448 21.7446 35.2608C21.7879 35.287 21.8038 35.2904 21.8756 35.2858C21.9394 35.2835 21.9645 35.2767 21.9907 35.2562C22.0419 35.2163 22.6379 34.6238 22.6869 34.5634C22.7256 34.5167 22.7313 34.5019 22.7347 34.4381C22.7381 34.38 22.7347 34.356 22.7153 34.3184C22.6937 34.2774 22.4783 34.0005 22.4453 33.9721C22.4385 33.9652 22.4111 33.931 22.3849 33.8946L22.3359 33.8285L22.3576 33.7977C22.3883 33.751 22.4009 33.7282 22.4464 33.6416C22.4692 33.5972 22.492 33.5539 22.4977 33.5448C22.5125 33.5186 22.5513 33.4286 22.5604 33.3966C22.5649 33.3807 22.5763 33.3579 22.5843 33.3454C22.5934 33.3328 22.6003 33.3157 22.6003 33.3055C22.6014 33.2964 22.6105 33.2679 22.6231 33.2428C22.6356 33.2178 22.6447 33.1893 22.6458 33.1779C22.6458 33.1676 22.6561 33.1323 22.6675 33.0981C22.68 33.0651 22.6926 33.0195 22.6971 32.9956C22.7074 32.9329 22.7416 32.9169 22.8897 32.9044C23.0173 32.8942 23.1358 32.8805 23.2725 32.86C23.3637 32.8463 23.4229 32.8076 23.4548 32.7426C23.4765 32.6959 23.4776 32.6742 23.4776 32.1775C23.4776 31.6807 23.4765 31.659 23.4548 31.6123C23.4241 31.5485 23.3625 31.5086 23.2782 31.4949C23.1392 31.4733 23.0241 31.4596 22.8942 31.4494C22.7393 31.4368 22.7074 31.422 22.6971 31.3593C22.6926 31.3354 22.6823 31.2944 22.6732 31.2659C22.6641 31.2374 22.6515 31.1964 22.6458 31.1736C22.6401 31.152 22.6276 31.1178 22.6174 31.0996C22.6082 31.0813 22.6003 31.0597 22.6003 31.0528C22.6003 31.0403 22.5866 31.0061 22.5365 30.8956C22.5285 30.8762 22.5159 30.8489 22.5091 30.8329C22.5034 30.817 22.4932 30.7965 22.4875 30.7873C22.4818 30.7782 22.4715 30.7577 22.4647 30.7418C22.4578 30.7258 22.4396 30.6928 22.4237 30.6677C22.4088 30.6426 22.3895 30.6062 22.3804 30.5868C22.3712 30.5674 22.3576 30.5469 22.3507 30.5435C22.3348 30.5333 22.3462 30.5059 22.3929 30.4455C22.4316 30.3977 22.443 30.384 22.4875 30.335C22.4977 30.3236 22.5205 30.294 22.5387 30.2689C22.557 30.2427 22.5968 30.1937 22.6276 30.1584C22.7222 30.049 22.7404 30.0057 22.7336 29.9123C22.729 29.853 22.7222 29.8336 22.688 29.7926C22.6413 29.7357 22.0397 29.1374 21.9907 29.0987C21.9394 29.0588 21.8084 29.0543 21.7491 29.0907C21.7115 29.1135 21.4301 29.3323 21.4153 29.3505C21.4118 29.3539 21.3799 29.379 21.3446 29.4064C21.2797 29.4542 21.2478 29.4645 21.2261 29.444C21.2204 29.4371 21.1908 29.4189 21.1589 29.4029C21.1281 29.3858 21.0894 29.3653 21.0734 29.3574C21.0119 29.3243 20.8478 29.248 20.8159 29.2377C20.7977 29.232 20.7475 29.2149 20.7031 29.1978C20.6598 29.1819 20.5983 29.1614 20.5664 29.1534C20.5356 29.1454 20.498 29.1329 20.4843 29.1261C20.4707 29.1181 20.4445 29.1124 20.4262 29.1124C20.367 29.1124 20.3522 29.0816 20.3431 28.938C20.3385 28.8685 20.326 28.7649 20.3168 28.709C20.3066 28.6532 20.2986 28.5803 20.2986 28.5472C20.2986 28.4754 20.2576 28.4048 20.1869 28.3569L20.1437 28.3262L19.6138 28.3273C19.3233 28.3273 19.0749 28.3319 19.0623 28.3364Z" fill="#F6A717"/>
<path d="M19.4099 30.7315C19.3882 30.7372 19.3347 30.7497 19.2902 30.7589C19.2093 30.7748 19.1102 30.8056 19.0794 30.8238C19.0703 30.8295 19.0521 30.8363 19.0395 30.8409C18.9757 30.8614 18.8151 30.956 18.7296 31.0232C18.6373 31.095 18.4755 31.2511 18.4755 31.267C18.4755 31.2716 18.455 31.3012 18.4299 31.3331C18.4049 31.365 18.3787 31.4026 18.3718 31.4175C18.3661 31.4311 18.3354 31.4904 18.3046 31.5496C18.2727 31.6077 18.2476 31.6647 18.2476 31.675C18.2465 31.6852 18.2374 31.7137 18.2248 31.7388C18.2123 31.7638 18.2032 31.8003 18.2021 31.8197C18.2021 31.839 18.1941 31.8778 18.1838 31.9051C18.1679 31.945 18.1645 31.9986 18.1645 32.1775C18.1645 32.3563 18.1679 32.4099 18.1838 32.4498C18.1941 32.4771 18.2021 32.5159 18.2021 32.5352C18.2032 32.5546 18.2123 32.5911 18.2248 32.6161C18.2374 32.6412 18.2465 32.6708 18.2476 32.6811C18.2476 32.7118 18.3809 32.9602 18.4299 33.0229C18.455 33.0537 18.4755 33.0833 18.4755 33.0879C18.4755 33.1038 18.6373 33.2599 18.7273 33.3294C18.8276 33.408 18.8447 33.4183 18.9655 33.4764C19.0065 33.4958 19.0475 33.5163 19.0566 33.5231C19.0657 33.5288 19.0794 33.5357 19.0851 33.5368C19.092 33.5391 19.1227 33.5505 19.1535 33.5607C19.1854 33.5721 19.2378 33.5858 19.2708 33.5915C19.3039 33.5972 19.3597 33.6097 19.395 33.6188C19.4725 33.6393 19.7711 33.6428 19.8314 33.6234C19.8531 33.6166 19.9078 33.6052 19.9511 33.596C19.9955 33.5869 20.0571 33.5721 20.0878 33.5607C20.1824 33.5277 20.3966 33.4194 20.4604 33.3716C20.4935 33.3477 20.5333 33.318 20.5481 33.3078C20.6006 33.269 20.7362 33.1277 20.7977 33.0434C20.8626 32.9568 20.9766 32.7472 20.9937 32.6845C20.9994 32.6651 21.0108 32.6275 21.021 32.599C21.0677 32.4578 21.0791 32.3791 21.0791 32.1775C21.0791 31.9758 21.0677 31.8972 21.021 31.7559C21.0108 31.7274 20.9994 31.6886 20.9937 31.6704C20.9766 31.6066 20.8626 31.3981 20.7943 31.3058C20.7316 31.2215 20.6085 31.0927 20.547 31.0471C20.5322 31.0369 20.4935 31.0073 20.4604 30.9833C20.3966 30.9355 20.1824 30.8272 20.0878 30.7942C20.0571 30.7828 19.9955 30.768 19.9511 30.7589C19.9078 30.7497 19.8531 30.7384 19.8314 30.7315C19.7836 30.7167 19.4657 30.7167 19.4099 30.7315Z" fill="white"/>
<path d="M48.637 28.0966C48.6962 28.1096 48.7583 28.124 48.7741 28.1312C48.79 28.137 48.829 28.1514 48.8607 28.1615C49.1147 28.2409 49.4307 28.4847 49.5865 28.7214C49.65 28.8166 49.7626 29.0417 49.7626 29.072C49.7626 29.0807 49.7712 29.1182 49.7828 29.1557C49.8246 29.2899 49.8347 29.3635 49.8347 29.5396C49.8347 29.7098 49.829 29.7531 49.79 29.9075C49.7684 29.9941 49.7583 30.1312 49.7698 30.1788C49.7756 30.2034 49.9329 30.3722 50.1969 30.6363C50.4264 30.8671 50.614 31.0619 50.614 31.0706C50.614 31.0793 50.562 31.137 50.4985 31.199L50.3816 31.3116L50.2777 31.2106C50.1522 31.0879 50.1046 31.0619 50.0079 31.0619C49.9141 31.0619 49.865 31.0937 49.6976 31.264C49.6269 31.3361 49.5562 31.4025 49.5404 31.4111C49.5173 31.4227 49.4826 31.3938 49.2878 31.2005C49.0166 30.9321 48.9603 30.9018 48.8102 30.9479C48.3239 31.0966 47.8362 31.0042 47.4379 30.6868C47.2821 30.5641 47.1392 30.3852 47.0483 30.2005C46.9733 30.049 46.966 30.0302 46.9199 29.8282C46.8881 29.6969 46.8809 29.4458 46.9069 29.4458C46.917 29.4458 47.0829 29.6045 47.2792 29.7979C47.6183 30.1341 47.637 30.1485 47.7005 30.1586C47.7857 30.1716 47.7813 30.1731 48.2157 30.0288C48.6168 29.896 48.6558 29.8801 48.6875 29.8296C48.7135 29.7907 48.7655 29.6593 48.777 29.6045C48.7813 29.5843 48.79 29.5612 48.7958 29.554C48.8015 29.5453 48.8261 29.4718 48.8521 29.3881C48.878 29.3044 48.9054 29.2207 48.9141 29.2005C48.9805 29.0389 48.9992 28.9104 48.9675 28.8296C48.9603 28.808 48.7972 28.6334 48.6067 28.4429C48.4177 28.251 48.2619 28.0908 48.2619 28.085C48.2619 28.0663 48.5274 28.0749 48.637 28.0966ZM54.5591 28.2423C54.6861 28.3679 54.6861 28.3635 54.6082 28.5352C54.5851 28.5872 54.5533 28.6579 54.5375 28.6911C54.523 28.7257 54.487 28.8094 54.4581 28.8772C54.4293 28.9465 54.4018 29.0129 54.3946 29.0259C54.3888 29.0389 54.3614 29.1009 54.3355 29.1644C54.2518 29.365 54.2359 29.3881 54.1565 29.4198C54.1176 29.4357 54.0714 29.4544 54.0555 29.4617C54.0252 29.4746 53.8521 29.5396 53.7886 29.5612C53.7684 29.5684 53.6919 29.5987 53.6183 29.629L53.4855 29.6839L52.3023 30.8657L51.1176 32.0475L50.9386 31.8686C50.8391 31.7719 50.7583 31.6853 50.7583 31.6781C50.7583 31.6723 51.2864 31.1399 51.9314 30.4948C52.5779 29.8498 53.1161 29.3029 53.1277 29.2798C53.1407 29.2553 53.1609 29.2091 53.1738 29.1745C53.2171 29.0591 53.2445 28.9912 53.2619 28.9479C53.272 28.9234 53.2907 28.8758 53.3023 28.8397C53.347 28.7055 53.4062 28.5742 53.4307 28.5569C53.4408 28.5482 53.5245 28.5107 53.6154 28.4732C53.7684 28.4083 53.8232 28.3852 53.9617 28.3246C53.9891 28.313 54.0324 28.2943 54.0555 28.2842C54.119 28.2582 54.1609 28.2394 54.2575 28.1961C54.3456 28.1572 54.4047 28.1355 54.4321 28.1341C54.4408 28.1326 54.4971 28.1817 54.5591 28.2423ZM50.5692 32.2365C51.1666 32.8339 51.132 32.7849 51.0252 32.8787C50.9646 32.9321 50.9603 32.9321 50.8419 32.8946C50.549 32.8022 50.194 32.9191 50.005 33.1687C49.9098 33.2957 49.8492 33.4804 49.8492 33.6449C49.8492 33.7156 49.8852 33.8859 49.9127 33.9494C49.9199 33.9667 49.6991 34.1947 49.0425 34.8498C48.2171 35.6723 48.057 35.8224 48.0021 35.8238C47.9891 35.8238 47.9733 35.8296 47.966 35.8368C47.9357 35.8642 47.7828 35.896 47.6789 35.896C47.246 35.896 46.891 35.5468 46.891 35.1197C46.891 34.9595 46.9343 34.821 47.0252 34.6839C47.0815 34.5987 48.7958 32.8801 48.8246 32.8801C48.8362 32.8801 48.8723 32.8902 48.9054 32.9018C49.0425 32.9494 49.1508 32.9566 49.2835 32.9306C49.4639 32.896 49.5764 32.8354 49.6976 32.7142C49.7958 32.6161 49.8477 32.5338 49.8982 32.3895C49.9271 32.3058 49.93 32.0417 49.9026 31.9624C49.8578 31.8354 49.8578 31.8311 49.9228 31.7618C49.9559 31.7257 49.9935 31.6969 50.0065 31.6969C50.0194 31.6969 50.272 31.9393 50.5692 32.2365ZM52.1493 32.5901C52.4754 32.9133 52.5822 33.01 52.6255 33.0244C52.6832 33.0432 52.7987 33.0374 52.8463 33.0129C52.8997 32.9855 53.1219 32.9523 53.2546 32.9523C53.3802 32.9523 53.5938 32.9826 53.6659 33.01C53.6818 33.0172 53.7337 33.036 53.7813 33.0533C54.1046 33.1687 54.409 33.4458 54.5692 33.7705C54.6443 33.922 54.6515 33.9407 54.6976 34.1427C54.7438 34.3361 54.7265 34.7257 54.6688 34.8311C54.6601 34.8455 54.6544 34.8657 54.6544 34.8787C54.6544 34.896 54.6327 34.9566 54.5981 35.0302C54.5591 35.1124 54.4581 35.2813 54.4163 35.3332C54.3787 35.3794 54.2099 35.5482 54.1637 35.5858C54.0656 35.6637 53.8809 35.7661 53.7741 35.8022C53.7308 35.8166 53.6818 35.8339 53.6659 35.8412C53.5533 35.8902 53.1609 35.9104 52.9862 35.8744C52.6183 35.7993 52.3239 35.6204 52.0974 35.3347C52.0036 35.2178 51.9992 35.2106 51.9271 35.0648C51.8174 34.8412 51.7929 34.7272 51.7914 34.4313C51.79 34.251 51.7958 34.1788 51.816 34.0995C51.8477 33.9811 51.8622 33.8469 51.8477 33.7921C51.8419 33.7705 51.7424 33.6565 51.6082 33.5223C51.4826 33.3938 51.3787 33.2798 51.3787 33.2683C51.3787 33.2567 51.448 33.1788 51.5317 33.0966C51.6154 33.0129 51.6962 32.9205 51.7121 32.8917C51.7727 32.7733 51.7366 32.6666 51.5808 32.5122C51.5331 32.4645 51.4942 32.4212 51.4942 32.414C51.4942 32.3996 51.7106 32.1731 51.7236 32.1731C51.7265 32.1731 51.9184 32.3606 52.1493 32.5901Z" fill="#F6A717"/>
<path d="M48.9757 33.491C48.928 33.5054 48.7982 33.6281 48.1806 34.2442C47.371 35.0494 47.4129 35.0004 47.4273 35.1591C47.4345 35.2356 47.4663 35.2861 47.5355 35.3337C47.6005 35.3784 47.7332 35.3799 47.801 35.3366C47.8285 35.3207 48.1719 34.983 48.5673 34.5877C49.2109 33.9426 49.2859 33.8633 49.3003 33.8056C49.3537 33.6035 49.1777 33.4333 48.9757 33.491Z" fill="#F6A717"/>
<path d="M53.1025 33.4918C52.8543 33.535 52.6696 33.6418 52.5109 33.8366C52.4387 33.9247 52.3593 34.0646 52.3593 34.1021C52.3593 34.118 52.3536 34.1353 52.3464 34.1425C52.3391 34.1512 52.3247 34.2176 52.3146 34.2912C52.2858 34.4946 52.3204 34.701 52.4113 34.8655C52.6047 35.2205 52.9697 35.4095 53.3666 35.3619C53.5152 35.3431 53.6003 35.3157 53.7518 35.2363C53.8081 35.206 54.0419 34.9737 54.0621 34.9275C54.0693 34.9088 54.0823 34.8828 54.0895 34.8713C54.1905 34.7068 54.2251 34.3561 54.1617 34.1512C54.0909 33.9203 53.8918 33.6837 53.6869 33.5841C53.5484 33.5177 53.544 33.5163 53.3983 33.4918C53.2569 33.4687 53.2396 33.4687 53.1025 33.4918ZM53.4301 34.0314C53.5152 34.069 53.6047 34.1584 53.6451 34.2464C53.6898 34.3417 53.6912 34.5047 53.6479 34.5985C53.5671 34.7775 53.3593 34.8886 53.1804 34.8496C53.0664 34.8251 53.0087 34.7948 52.9438 34.7241C52.8731 34.6476 52.8601 34.6259 52.8298 34.5192C52.8081 34.447 52.8067 34.4225 52.8225 34.3604C52.8658 34.1714 52.9582 34.0675 53.1314 34.0098C53.2078 33.9853 53.3478 33.9954 53.4301 34.0314Z" fill="#F6A717"/>
</g>
<defs>
<filter id="filter0_d_5678_449" x="2.96166" y="3.20065" width="58.0747" height="58.0737" filterUnits="userSpaceOnUse" color-interpolation-filters="sRGB">
<feFlood flood-opacity="0" result="BackgroundImageFix"/>
<feColorMatrix in="SourceAlpha" type="matrix" values="0 0 0 0 0 0 0 0 0 0 0 0 0 0 0 0 0 0 127 0" result="hardAlpha"/>
<feOffset dy="0.237037"/>
<feGaussianBlur stdDeviation="1.18519"/>
<feComposite in2="hardAlpha" operator="out"/>
<feColorMatrix type="matrix" values="0 0 0 0 0 0 0 0 0 0 0 0 0 0 0 0 0 0 0.5 0"/>
<feBlend mode="normal" in2="BackgroundImageFix" result="effect1_dropShadow_5678_449"/>
<feBlend mode="normal" in="SourceGraphic" in2="effect1_dropShadow_5678_449" result="shape"/>
</filter>
</defs>
</svg>
