<svg width="101" height="101" viewBox="0 0 101 101" fill="none" xmlns="http://www.w3.org/2000/svg">
<path d="M43.157 0.572571C42.9943 0.646524 42.5802 0.957126 42.2548 1.26773C41.4856 1.97768 41.2046 2.9243 41.0715 5.17248C41.0271 6.03035 40.894 7.24318 40.7757 7.89397C40.6574 8.52997 40.5686 9.32867 40.5686 9.68365C40.5686 10.0238 40.4799 10.3788 40.3911 10.4528C40.0805 10.6746 38.4979 11.2367 38.1429 11.2367C37.9655 11.2367 37.6992 11.3254 37.5365 11.4437C37.3738 11.5473 37.0484 11.6804 36.797 11.7396C36.3976 11.8431 34.7855 12.4347 34.2234 12.7157C33.8684 12.8784 32.7 13.4109 32.2858 13.5884C31.9456 13.7363 31.7977 13.8103 31.1469 14.1948C30.999 14.2836 30.6736 14.4463 30.4074 14.5646C30.156 14.6829 29.9045 14.8456 29.8454 14.9344C29.7418 15.1118 28.7361 15.1414 28.7361 14.9639C28.7361 14.9048 28.248 14.4758 27.6711 14.0321C27.0795 13.6032 26.4583 13.1151 26.2956 12.9672C26.1329 12.8193 25.4969 12.3164 24.8905 11.8579C24.2841 11.3994 23.722 10.9409 23.6333 10.8373C23.2339 10.3788 22.2873 10.0534 21.3111 10.0534C20.3645 10.0534 20.2906 10.083 19.5362 10.6894C18.0276 11.9318 10.721 19.3272 10.4104 19.9336C9.98143 20.7619 9.99623 21.9747 10.4252 22.7291C10.7506 23.3059 11.638 24.5039 11.9338 24.7702C12.2148 25.0216 13.5016 26.6338 13.5016 26.7373C13.5016 26.7965 13.8122 27.1663 14.182 27.5804C15.3209 28.8228 15.3505 28.9412 14.7588 30.0357C14.4778 30.5533 13.9158 31.6774 13.5016 32.5353C13.0875 33.3932 12.6586 34.2806 12.5402 34.5025C12.4219 34.7391 12.3184 35.0054 12.3184 35.0941C12.3184 35.1976 12.1853 35.523 12.0226 35.8336C11.8599 36.1294 11.7267 36.4992 11.7267 36.6323C11.7119 36.7802 11.5936 37.1648 11.4309 37.4902C11.2682 37.8156 11.1499 38.2297 11.1351 38.3924C11.1351 38.5699 10.9724 39.132 10.7801 39.6496C10.4399 40.5667 10.4104 40.5962 9.7152 40.7737C9.31585 40.8773 8.01427 41.0252 6.80143 41.0991C5.60338 41.1879 4.56803 41.2766 4.50887 41.321C4.44971 41.3506 3.87287 41.4541 3.22208 41.5428C1.81696 41.7499 1.07743 42.1788 0.633705 43.0959C0.352681 43.7023 0.337891 43.9833 0.337891 50.4321C0.337891 56.8808 0.352681 57.1618 0.633705 57.7683C1.07743 58.6853 1.83175 59.129 3.20729 59.3065C3.8285 59.3804 4.40534 59.484 4.47929 59.5283C4.55324 59.5727 5.5738 59.6763 6.72748 59.7502C7.89594 59.839 9.19753 59.9721 9.64125 60.0756C10.3808 60.2383 10.4399 60.2827 10.721 60.9187C10.8837 61.2884 11.0612 61.8949 11.1351 62.2646C11.2091 62.6344 11.3718 63.1225 11.4901 63.3739C11.6232 63.6106 11.7267 63.9508 11.7267 64.1283C11.7267 64.291 11.8303 64.5572 11.9486 64.7199C12.0669 64.8678 12.1705 65.0897 12.1705 65.208C12.1705 65.3263 12.2888 65.6961 12.4515 66.0215C12.5994 66.3617 12.91 67.0272 13.1171 67.5153C13.3389 68.0034 13.5756 68.5063 13.6495 68.6246C13.7235 68.743 14.0341 69.3346 14.3299 69.9262C14.6405 70.5179 14.9363 71.0355 15.0103 71.0799C15.0694 71.1243 15.1286 71.3461 15.1286 71.5976C15.1286 71.923 14.7293 72.5294 13.3833 74.2155C12.4219 75.4136 11.4605 76.582 11.2386 76.8187C10.0998 78.0315 9.78915 79.6585 10.4695 80.7974C10.6618 81.1376 12.7769 83.3562 15.1582 85.7375C19.6841 90.2487 20.3941 90.8107 21.5034 90.8107C22.1246 90.8107 23.2191 90.293 23.9291 89.657C24.1657 89.4352 24.8757 88.8879 25.4821 88.4294C26.0885 87.9709 26.7245 87.468 26.8872 87.3053C27.538 86.6989 29.0467 85.634 29.2685 85.634C29.4608 85.634 30.9694 86.4179 31.8421 86.9799C31.9604 87.0539 32.1675 87.1574 32.2858 87.2018C32.6408 87.3497 33.617 87.7934 34.534 88.2075C34.9925 88.4146 35.451 88.5921 35.5398 88.5921C35.6433 88.5921 35.8948 88.6808 36.1018 88.7992C36.6491 89.0654 37.8471 89.4795 38.5719 89.6275C38.8973 89.7014 39.4741 89.8937 39.8735 90.0712C40.5538 90.367 40.5686 90.3966 40.5686 91.0326C40.5686 91.3876 40.6722 92.201 40.7905 92.837C40.9088 93.473 41.0123 94.3901 41.0123 94.8782C41.0123 96.0318 41.249 97.6588 41.5448 98.5315C41.7075 99.0491 41.959 99.4041 42.447 99.7887L43.1274 100.351L57.1638 100.439L57.7998 100.025C58.1696 99.8035 58.495 99.5076 58.5393 99.3745C58.5837 99.2414 58.7464 98.9752 58.9091 98.7977C59.1162 98.5462 59.2049 98.2356 59.2049 97.6884C59.2049 97.2595 59.338 96.1502 59.5007 95.2331C59.6634 94.3013 59.7965 93.0737 59.7965 92.5116C59.7965 90.8699 60.0628 90.2339 60.7284 90.2191C60.8911 90.2191 61.2165 90.1155 61.4679 89.9972C61.7341 89.8789 62.2074 89.7162 62.5328 89.6422C63.2872 89.45 64.426 89.0802 65.2987 88.7252C65.6833 88.5773 66.0826 88.4442 66.2009 88.4442C66.3192 88.4442 66.4967 88.3407 66.6003 88.2223C66.7038 88.104 66.8813 88.0005 67.0144 88.0005C67.2067 88.0005 67.8131 87.7047 70.5642 86.3143C70.86 86.1664 71.141 85.9889 71.1854 85.9298C71.4516 85.5156 72.7088 86.1516 73.9217 87.3053C74.0844 87.468 74.7056 87.9709 75.312 88.4294C75.9184 88.8879 76.6284 89.45 76.865 89.6718C77.1165 89.8937 77.6194 90.2487 77.9743 90.4557C78.5364 90.7959 78.7434 90.8403 79.6753 90.7811C80.5035 90.7515 80.8289 90.6628 81.1691 90.3966C81.8347 89.8789 89.5702 82.1877 90.2062 81.4038C90.7091 80.7974 90.7831 80.6051 90.8275 79.7768C90.8718 79.0225 90.8275 78.7119 90.576 78.2238C90.295 77.6913 87.4995 74.0972 87.0706 73.7274C86.9819 73.6387 86.6269 73.195 86.2867 72.7217L85.6507 71.8638L85.9317 71.4644C86.3311 70.858 86.4938 70.5622 87.0854 69.4381C87.3812 68.8613 87.677 68.2992 87.751 68.1809C87.9433 67.8407 88.4462 66.6723 88.5645 66.2581C88.6236 66.0511 88.7716 65.7552 88.8751 65.5925C88.9934 65.4298 89.0822 65.208 89.0822 65.0749C89.0969 64.9565 89.2153 64.5868 89.378 64.2614C89.5407 63.936 89.659 63.5662 89.6738 63.4183C89.6738 63.2852 89.8069 62.8267 89.9548 62.383C90.1175 61.954 90.2802 61.3624 90.3394 61.0518C90.4725 60.2383 90.9162 60.0312 92.839 59.8685C94.4956 59.7354 96.0338 59.5579 97.8087 59.2917C98.9919 59.1142 99.761 58.6113 100.175 57.7683C100.456 57.1618 100.471 56.8808 100.471 50.4321C100.471 43.9833 100.456 43.7023 100.175 43.0959C99.7758 42.2676 98.9771 41.7499 97.8826 41.5724C96.0782 41.2914 94.5843 41.1139 92.8982 40.9808C90.8866 40.8181 90.4725 40.6258 90.3394 39.8123C90.2802 39.5017 90.1471 38.9693 90.0288 38.5995C89.9104 38.2297 89.7477 37.6973 89.6738 37.4014C89.5998 37.1204 89.4371 36.6767 89.304 36.44C89.1857 36.2034 89.0822 35.9224 89.0822 35.8336C89.0822 35.6709 88.9047 35.2272 88.2539 33.7925C88.1503 33.5411 87.9876 33.1861 87.8989 32.979C87.8249 32.7719 87.6918 32.5057 87.6179 32.3874C87.5439 32.2691 87.4108 32.0028 87.3221 31.7958C87.2333 31.5887 86.9967 31.1598 86.7896 30.8344C86.5973 30.509 86.3459 30.0357 86.2275 29.7842C86.1092 29.5328 85.9317 29.2666 85.843 29.2222C85.6359 29.0891 85.7838 28.7341 86.3903 27.9502C86.8931 27.329 87.041 27.1515 87.6179 26.5155C87.751 26.3676 88.0468 25.983 88.2835 25.6576C88.5201 25.3174 89.0378 24.6814 89.4371 24.2229C90.6648 22.803 90.9014 22.241 90.8127 21.0281C90.7535 20.259 90.6648 20.0076 90.221 19.4751C89.6146 18.7356 81.8051 10.9704 81.1691 10.4676C80.5035 9.94988 78.8026 9.89072 78.0335 10.364C77.5454 10.6598 73.8921 13.4997 73.6998 13.7363C73.6554 13.7807 73.2413 14.1061 72.7828 14.4611C71.9397 15.0823 71.5256 15.2154 71.2446 14.9491C71.1706 14.8604 70.786 14.6237 70.3719 14.4167C69.9725 14.1948 69.4697 13.9286 69.2626 13.825C68.4639 13.3961 66.334 12.4051 65.9199 12.272C65.6833 12.1981 65.0325 11.9762 64.4556 11.7543C63.8936 11.5473 63.0949 11.281 62.6807 11.1775C62.2814 11.074 61.7933 10.9113 61.6158 10.8225C61.4383 10.719 61.0981 10.645 60.8615 10.645C60.0924 10.645 59.9001 10.2457 59.7818 8.38206C59.7226 7.47983 59.5599 6.13388 59.4416 5.40913C59.3085 4.68439 59.2049 3.73778 59.2049 3.30885C59.2049 2.37704 58.6725 1.46002 57.7554 0.838806L57.1934 0.439453L50.3157 0.454246C46.5441 0.454246 43.3197 0.513408 43.157 0.572571Z" fill="#F6A717"/>
<path d="M47.6682 31.6627C47.3871 31.7366 46.692 31.8993 46.1151 32.0176C45.065 32.2247 43.7782 32.6241 43.3789 32.8607C43.2605 32.9347 43.0239 33.0234 42.8612 33.0826C42.0329 33.3488 39.9474 34.5764 38.8381 35.4491C37.6401 36.3809 35.5398 38.4072 35.5398 38.6143C35.5398 38.6735 35.2735 39.058 34.9482 39.4722C34.6228 39.8863 34.2826 40.3744 34.1938 40.5667C34.1199 40.7442 33.7205 41.5133 33.3212 42.2824C32.907 43.0367 32.5816 43.7763 32.5816 43.9094C32.5668 44.0425 32.4485 44.4123 32.2858 44.7377C32.1231 45.063 32.0048 45.5364 31.99 45.7878C31.99 46.0392 31.8865 46.5421 31.7534 46.8971C31.5463 47.4148 31.5019 48.1099 31.5019 50.4321C31.5019 52.7542 31.5463 53.4494 31.7534 53.9671C31.8865 54.322 31.99 54.8249 31.99 55.0764C32.0048 55.3278 32.1231 55.8011 32.2858 56.1265C32.4485 56.4519 32.5668 56.8365 32.5816 56.9696C32.5816 57.3689 34.3121 60.5933 34.9482 61.4068C35.2735 61.8061 35.5398 62.1907 35.5398 62.2499C35.5398 62.4569 37.6401 64.4833 38.8085 65.3855C40.1101 66.406 40.332 66.5392 41.8998 67.2935C42.4323 67.5449 42.9647 67.8112 43.083 67.8999C43.2014 67.9739 43.3789 68.0626 43.4528 68.0774C43.5416 68.107 43.9409 68.2549 44.3403 68.388C44.7544 68.5359 45.4348 68.7134 45.8637 68.7874C46.2926 68.8613 47.0174 69.024 47.4759 69.1423C48.4817 69.4086 52.3568 69.4529 53.1407 69.2015C53.4218 69.1127 54.1317 68.9648 54.6938 68.8465C55.2706 68.7282 56.0693 68.5359 56.4686 68.388C57.6963 67.9591 60.4769 66.554 61.3052 65.9327C61.7341 65.6221 62.2518 65.2376 62.4441 65.1045C63.1245 64.6016 64.8846 62.7675 65.6833 61.673C66.5263 60.5489 68.0054 57.8274 68.2272 57.0139C68.3012 56.7625 68.4491 56.2744 68.5822 55.9046C69.1887 54.0706 69.3366 53.05 69.3366 50.4321C69.3366 47.8141 69.1887 46.7936 68.5822 44.9595C68.4491 44.5898 68.3012 44.0869 68.2272 43.8502C68.0054 43.0219 66.5263 40.3152 65.6389 39.1172C64.8254 38.0227 63.228 36.3513 62.4293 35.7597C62.237 35.6266 61.7341 35.242 61.3052 34.9314C60.4769 34.3102 57.6963 32.9051 56.4686 32.4762C56.0693 32.3282 55.2706 32.136 54.6938 32.0176C54.1317 31.8993 53.4218 31.7514 53.1407 31.6627C52.5195 31.4704 48.3929 31.4704 47.6682 31.6627Z" fill="white"/>
</svg>
