<svg xmlns="http://www.w3.org/2000/svg" width="70" height="70" viewBox="0 0 70 70" fill="none">
  <path d="M62.3438 4.92188H37.7344C36.2195 4.92188 35 6.14141 35 7.65625C35 22.0003 53.5653 35 58.3953 39.83C51.2191 48.9978 45.9242 54.3768 45.9242 65.0781C45.9242 66.593 47.1438 67.8125 48.6586 67.8125H62.3438C63.8586 67.8125 65.0781 66.593 65.0781 65.0781V7.65625C65.0781 6.14141 63.8586 4.92188 62.3438 4.92188Z" fill="#00A1FF"/>
  <path d="M7.65625 4.92188H32.2656C33.7805 4.92188 35 6.14141 35 7.65625C35 22.0003 16.4347 35 11.6047 39.83C18.7809 48.9978 24.0758 54.3768 24.0758 65.0781C24.0758 66.593 22.8562 67.8125 21.3414 67.8125H7.65625C6.14141 67.8125 4.92188 66.593 4.92188 65.0781V7.65625C4.92188 6.14141 6.14141 4.92188 7.65625 4.92188Z" fill="#00A1FF"/>
  <path d="M5.94653 2.17969H64.1235C66.205 2.17969 67.8806 3.85534 67.8806 5.93676C67.8806 8.01816 66.205 9.69381 64.1235 9.69381H5.94653C3.8651 9.69381 2.18945 8.01816 2.18945 5.93676C2.18945 3.85534 3.8651 2.17969 5.94653 2.17969Z" fill="#A8D0FF"/>
  <path d="M4.92188 37.5938H14.1173C15.6321 37.5938 16.8517 38.8133 16.8517 40.3281C16.8517 41.843 15.6321 43.0625 14.1173 43.0625H4.92188C3.40703 43.0625 2.1875 41.843 2.1875 40.3281C2.1875 38.8133 3.40703 37.5938 4.92188 37.5938Z" fill="#0066FF"/>
  <path d="M65.0782 37.5938H55.8828C54.368 37.5938 53.1484 38.8133 53.1484 40.3281C53.1484 41.843 54.368 43.0625 55.8828 43.0625H65.0782C66.5931 43.0625 67.8126 41.843 67.8126 40.3281C67.8126 38.8133 66.5931 37.5938 65.0782 37.5938Z" fill="#0066FF"/>
</svg>
