<svg xmlns="http://www.w3.org/2000/svg" width="64" height="71" viewBox="0 0 64 71" fill="none">
  <path d="M22.6667 48.3333C22.6668 48.9455 22.5046 49.5467 22.1966 50.0757C21.8885 50.6047 21.4457 51.0425 20.9132 51.3445C20.7369 51.4472 20.5905 51.5944 20.4887 51.7713C20.387 51.9482 20.3334 52.1488 20.3333 52.3529V60C20.3333 60.3094 20.2104 60.6062 19.9916 60.825C19.7728 61.0438 19.4761 61.1667 19.1667 61.1667C18.8572 61.1667 18.5605 61.0438 18.3417 60.825C18.1229 60.6062 18 60.3094 18 60V52.3529C17.9999 52.1488 17.9463 51.9482 17.8446 51.7713C17.7428 51.5944 17.5965 51.4473 17.4201 51.3446C16.8876 51.0425 16.4448 50.6047 16.1368 50.0757C15.8287 49.5467 15.6665 48.9455 15.6667 48.3333C15.6667 47.4051 16.0354 46.5148 16.6918 45.8585C17.3482 45.2021 18.2384 44.8333 19.1667 44.8333C20.0949 44.8333 20.9852 45.2021 21.6415 45.8585C22.2979 46.5148 22.6667 47.4051 22.6667 48.3333ZM19.1667 8.66667C17.0045 8.66759 14.8776 9.21479 12.9835 10.2574C11.0894 11.3001 9.48938 12.8044 8.33206 14.6308C7.17473 16.4571 6.49761 18.5462 6.36354 20.7042C6.22946 22.8622 6.6428 25.0191 7.56516 26.9746C8.48752 28.9302 9.88902 30.621 11.6395 31.8901C13.39 33.1592 15.4328 33.9654 17.5782 34.234C19.7236 34.5025 21.9021 34.2246 23.9114 33.4262C25.9207 32.6277 27.6958 31.3345 29.0717 29.6667H37.8333V64.6667C37.8328 66.2136 37.218 67.697 36.1242 68.7908C35.0303 69.8847 33.5469 70.4994 32 70.5H6.33333C4.78641 70.4994 3.303 69.8847 2.20916 68.7908C1.11532 67.697 0.50056 66.2136 0.5 64.6667V6.33333C0.50056 4.78641 1.11532 3.303 2.20916 2.20916C3.303 1.11532 4.78641 0.50056 6.33333 0.5H32C33.5469 0.50056 35.0303 1.11532 36.1242 2.20916C37.218 3.303 37.8328 4.78641 37.8333 6.33333V13.3333H29.0717C27.8666 11.8737 26.3537 10.6984 24.6414 9.89163C22.929 9.08488 21.0595 8.66658 19.1667 8.66667ZM13.3333 48.3333C13.3371 49.235 13.5497 50.1235 13.9545 50.9291C14.3594 51.7347 14.9454 52.4356 15.6667 52.9767V60C15.6667 60.9283 16.0354 61.8185 16.6918 62.4749C17.3482 63.1312 18.2384 63.5 19.1667 63.5C20.0949 63.5 20.9852 63.1312 21.6415 62.4749C22.2979 61.8185 22.6667 60.9283 22.6667 60V52.9767C23.4592 52.3789 24.0859 51.5886 24.4872 50.6807C24.8885 49.7727 25.0511 48.7773 24.9597 47.7888C24.8682 46.8004 24.5257 45.8517 23.9646 45.0328C23.4035 44.2139 22.6425 43.552 21.7537 43.1098C20.865 42.6677 19.878 42.4599 18.8864 42.5064C17.8948 42.5528 16.9315 42.8519 16.088 43.3752C15.2444 43.8985 14.5486 44.6286 14.0665 45.4964C13.5844 46.3641 13.332 47.3407 13.3333 48.3333ZM11 21.5C11.0024 23.6652 11.8636 25.741 13.3946 27.2721C14.9256 28.8031 17.0015 29.6643 19.1667 29.6667H25.7467C24.2049 30.9126 22.342 31.6966 20.3733 31.9281C18.4046 32.1596 16.4106 31.8292 14.6219 30.9749C12.8332 30.1206 11.3228 28.7774 10.2655 27.1007C9.20812 25.424 8.647 23.4823 8.647 21.5C8.647 19.5177 9.20812 17.576 10.2655 15.8993C11.3228 14.2226 12.8332 12.8794 14.6219 12.0251C16.4106 11.1708 18.4046 10.8403 20.3733 11.0719C22.342 11.3034 24.2049 12.0874 25.7467 13.3333H19.1667C17.0015 13.3357 14.9256 14.1969 13.3946 15.7279C11.8636 17.259 11.0024 19.3348 11 21.5ZM57.6667 15.6667H19.1667C17.6196 15.6667 16.1358 16.2812 15.0419 17.3752C13.9479 18.4692 13.3333 19.9529 13.3333 21.5C13.3333 23.0471 13.9479 24.5308 15.0419 25.6248C16.1358 26.7188 17.6196 27.3333 19.1667 27.3333H57.6667C59.2138 27.3333 60.6975 26.7188 61.7915 25.6248C62.8854 24.5308 63.5 23.0471 63.5 21.5C63.5 19.9529 62.8854 18.4692 61.7915 17.3752C60.6975 16.2812 59.2138 15.6667 57.6667 15.6667Z" fill="#0066FF"/>
</svg>
