<svg xmlns="http://www.w3.org/2000/svg" width="70" height="71" viewBox="0 0 70 71" fill="none">
  <path d="M43.2406 2.62109H5.82238C4.65572 2.62109 3.70117 3.57564 3.70117 4.74231V68.3787H45.3512V4.74231C45.3618 3.57564 44.4072 2.62109 43.2406 2.62109Z" fill="#59A6EA"/>
  <path d="M8.30469 6.86328H41.4698V29.136H8.30469V6.86328Z" fill="#2D4FCB"/>
  <path opacity="0.15" d="M38.2989 6.86328C38.2989 17.4057 29.7504 25.9436 19.2186 25.9436H11.508C9.74738 25.9436 8.32617 27.3648 8.32617 29.1254H41.4913V6.86328H38.2989Z" fill="black"/>
  <path d="M8.30469 41.8633H21.7107V64.136H8.30469V41.8633Z" fill="#2D4FCB"/>
  <path d="M28.0742 41.8633H41.4803V64.136H28.0742V41.8633Z" fill="#2D4FCB"/>
  <path opacity="0.15" d="M38.2985 41.8633V50.7299C38.2985 56.3724 33.7272 60.9542 28.0742 60.9542V64.136H41.4803V41.8633H38.2985Z" fill="black"/>
  <path d="M57.4844 48.9805V54.188C57.4844 54.7714 57.9616 55.2487 58.545 55.2487C59.1283 55.2487 59.6056 54.7714 59.6056 54.188V48.9805H57.4844Z" fill="#FF6158"/>
  <g opacity="0.15">
    <path d="M57.4844 48.9805V54.188C57.4844 54.7714 57.9616 55.2487 58.545 55.2487C59.1283 55.2487 59.6056 54.7714 59.6056 54.188V48.9805H57.4844Z" fill="black"/>
  </g>
  <path d="M39.3587 32.8486C38.2769 32.8486 37.3436 33.5062 36.9299 34.4395H31.086C30.5027 34.4395 30.0254 34.9168 30.0254 35.5001C30.0254 36.0835 30.5027 36.5608 31.086 36.5608H36.9299C37.3436 37.4941 38.2769 38.1517 39.3587 38.1517C40.8224 38.1517 42.0102 36.9638 42.0102 35.5001C42.0102 34.0365 40.8224 32.8486 39.3587 32.8486Z" fill="#F7D64B"/>
  <path d="M62.7764 68.3791H54.3128L52.5098 58.4307H64.5795L62.7764 68.3791Z" fill="#FF6158"/>
  <path opacity="0.15" d="M62.0766 58.4307L60.9205 64.7731C60.7614 65.6322 60.019 66.2579 59.1493 66.2579H56.0841C54.9599 66.2579 54.1114 67.2761 54.3129 68.3791H62.7766L64.5796 58.4307H62.0766Z" fill="black"/>
  <path d="M65.2384 54.1875H51.8536C51.2702 54.1875 50.793 54.6648 50.793 55.2481V57.3693C50.793 57.9527 51.2702 58.4299 51.8536 58.4299H65.2278C65.8112 58.4299 66.2884 57.9527 66.2884 57.3693V55.2481C66.299 54.6648 65.8218 54.1875 65.2384 54.1875Z" fill="#F7D64B"/>
  <path d="M62.3843 44.3877C60.2631 44.3877 58.5449 46.1059 58.5449 48.2271V50.1892H60.507C62.6283 50.1892 64.3464 48.471 64.3464 46.3498V44.3877H62.3843Z" fill="#FF6158"/>
  <path d="M54.7063 44.3877H52.7441V46.3498C52.7441 48.471 54.4623 50.1892 56.5835 50.1892H58.5457V48.2271C58.5457 46.1059 56.8275 44.3877 54.7063 44.3877Z" fill="#FF6158"/>
  <path d="M12.5574 20.2276C12.2816 20.2276 12.0165 20.1215 11.8044 19.92C11.3907 19.5064 11.3907 18.8382 11.8044 18.4245L19.865 10.3639C20.2786 9.9503 20.9468 9.9503 21.3604 10.3639C21.7741 10.7776 21.7741 11.4458 21.3604 11.8594L13.2998 19.92C13.0983 20.1215 12.8225 20.2276 12.5574 20.2276Z" fill="#59A6EA"/>
  <path d="M17.8719 21.8501C17.5961 21.8501 17.3309 21.7441 17.1188 21.5426C16.7052 21.1289 16.7052 20.4607 17.1188 20.0471L21.4885 15.6774C21.9022 15.2638 22.5703 15.2638 22.984 15.6774C23.3976 16.0911 23.3976 16.7592 22.984 17.1729L18.6143 21.5426C18.4128 21.7547 18.1476 21.8501 17.8719 21.8501Z" fill="#59A6EA"/>
  <path opacity="0.5" d="M56.8274 55.7783H52.5108C52.2138 55.7783 51.9805 56.0117 51.9805 56.3086C51.9805 56.6056 52.2138 56.8389 52.5108 56.8389H56.8274C57.1244 56.8389 57.3577 56.6056 57.3577 56.3086C57.3577 56.0117 57.1244 55.7783 56.8274 55.7783Z" fill="white"/>
  <path opacity="0.12" d="M63.254 44.3877V45.2574C63.254 47.3786 61.5358 49.0968 59.4146 49.0968H58.5449V50.1892H60.507C62.6283 50.1892 64.3464 48.471 64.3464 46.3498V44.3877H63.254Z" fill="black"/>
  <path opacity="0.12" d="M56.8172 45.0244C57.2203 45.629 57.4536 46.3502 57.4536 47.135C57.4536 48.2168 56.5733 49.0971 55.4915 49.0971C54.7066 49.0971 53.9854 48.8638 53.3809 48.4608C54.0703 49.5002 55.2369 50.1896 56.5839 50.1896H58.546V48.2274C58.546 46.8911 57.8566 45.7138 56.8172 45.0244Z" fill="black"/>
  <path opacity="0.15" d="M18.5289 41.8633V50.7299C18.5289 56.3724 13.9577 60.9542 8.30469 60.9542V64.136H21.7107V41.8633H18.5289Z" fill="black"/>
</svg>
