<svg xmlns="http://www.w3.org/2000/svg" width="70" height="71" viewBox="0 0 70 71" fill="none">
  <path d="M21.2923 33.7497C27.8967 33.7497 33.2507 28.3957 33.2507 21.7913C33.2507 15.1869 27.8967 9.83301 21.2923 9.83301C14.6879 9.83301 9.33398 15.1869 9.33398 21.7913C9.33398 28.3957 14.6879 33.7497 21.2923 33.7497Z" fill="#A8D0FF"/>
  <path d="M23.9051 16.129C24.5417 15.0086 24.1495 13.5842 23.029 12.9476C21.9086 12.311 20.4843 12.7032 19.8477 13.8236L16.3036 20.0612C15.3093 21.8112 16.5732 23.983 18.5859 23.983H19.3253L17.806 26.657C17.1693 27.7774 17.5616 29.2018 18.682 29.8384C19.8025 30.475 21.2268 30.0828 21.8634 28.9624L25.1159 23.2381C26.1102 21.4882 24.8462 19.3163 22.8335 19.3163H22.0941L23.9051 16.129Z" fill="#0066FF"/>
  <path fill-rule="evenodd" clip-rule="evenodd" d="M38.8309 27.976L46.0697 20.7232L46.0791 20.7136C47.8526 18.9161 48.6597 16.6265 48.4896 14.3348C48.3285 12.1646 47.321 10.2802 45.9961 8.93187C44.672 7.58425 42.7899 6.52912 40.586 6.35721C38.252 6.17516 35.9584 7.02302 34.1736 8.80785L34.1632 8.81823L31.7427 11.2693C28.9968 8.51432 25.1978 6.80947 21.0007 6.80947C12.6243 6.80947 5.83398 13.5998 5.83398 21.9761C5.83398 30.2476 12.4553 36.9725 20.6868 37.1396L8.25733 49.7578C6.35315 51.6895 5.76557 54.1598 6.14461 56.4199C6.49391 58.5027 7.61099 60.24 8.85676 61.4656C10.1029 62.6918 11.836 63.7593 13.8676 64.097C16.0543 64.4604 18.5516 63.936 20.4842 61.9772L34.0799 48.1745L42.6086 49.5227C45.1915 50.113 47.8907 49.3227 49.7547 47.4431L61.4817 35.716C63.2544 33.9432 63.9223 31.6545 63.6487 29.4742C63.395 27.4519 62.3777 25.7487 61.1748 24.5462C59.972 23.3436 58.269 22.3258 56.2468 22.072C54.0666 21.7983 51.7778 22.4663 50.005 24.2391L42.4697 31.7744L39.232 31.3681C39.0975 30.2508 38.8309 27.976 38.8309 27.976ZM36.1673 21.9761C36.1673 19.4997 35.5738 17.1619 34.5213 15.0972L37.4734 12.1077C40.9119 8.66925 46.1245 14.0232 42.7572 17.436L36.0053 24.201C36.112 23.4748 36.1673 22.7319 36.1673 21.9761ZM26.1597 38.2336C26.7754 37.6095 27.0882 36.7549 27.0391 35.8931C30.1195 34.5547 32.6688 32.2235 34.2831 29.3034L34.8248 33.8037C35.124 34.7305 35.8412 35.4573 36.7556 35.7606L42.085 36.4294C43.459 36.5595 44.3546 36.5001 45.1591 35.6848L53.3048 27.5389C56.1469 24.6969 61.0243 29.5741 58.182 32.4161L46.4465 44.1516C45.6838 44.9247 44.5719 45.2266 43.53 44.9437L34.2874 43.4826C33.2453 43.1996 32.1336 43.5015 31.3707 44.2747L17.1622 58.6996C14.2608 61.64 8.5032 56.1531 11.5819 53.0327L26.1597 38.2336ZM21.0007 32.4761C15.2017 32.4761 10.5007 27.7751 10.5007 21.9761C10.5007 16.1771 15.2017 11.4761 21.0007 11.4761C26.7996 11.4761 31.5007 16.1771 31.5007 21.9761C31.5007 27.7751 26.7996 32.4761 21.0007 32.4761Z" fill="#0066FF"/>
</svg>
