<svg xmlns="http://www.w3.org/2000/svg" width="71" height="70" viewBox="0 0 71 70" fill="none">
  <path d="M6.73047 43.75H63.6055V52.5H6.73047V43.75Z" fill="#B3E5FC"/>
  <path d="M15.4805 43.75H22.043V52.5H15.4805V43.75Z" fill="#E1F5FE"/>
  <path d="M54.8555 43.75H63.6055V52.5H54.8555V43.75Z" fill="#81D4FA"/>
  <path d="M11.1055 52.5H19.8555V59.0625C19.8555 60.2228 19.3945 61.3356 18.5741 62.1561C17.7536 62.9766 16.6408 63.4375 15.4805 63.4375C14.3201 63.4375 13.2073 62.9766 12.3869 62.1561C11.5664 61.3356 11.1055 60.2228 11.1055 59.0625V52.5Z" fill="#29B6F6"/>
  <path d="M50.4805 52.5H59.2305V59.0625C59.2305 60.2228 58.7695 61.3356 57.9491 62.1561C57.1286 62.9766 56.0158 63.4375 54.8555 63.4375C53.6951 63.4375 52.5823 62.9766 51.7619 62.1561C50.9414 61.3356 50.4805 60.2228 50.4805 59.0625V52.5Z" fill="#29B6F6"/>
  <path d="M6.73047 26.25H15.4805V43.75H6.73047V26.25Z" fill="#81D4FA"/>
  <path d="M19.8555 6.5625H50.4805C51.6408 6.5625 52.7536 7.02344 53.5741 7.84391C54.3945 8.66438 54.8555 9.77718 54.8555 10.9375V43.75H15.4805V10.9375C15.4805 9.77718 15.9414 8.66438 16.7619 7.84391C17.5823 7.02344 18.6951 6.5625 19.8555 6.5625Z" fill="#81D4FA"/>
  <path d="M19.8555 6.5625H22.043V43.75H15.4805V10.9375C15.4805 9.77718 15.9414 8.66438 16.7619 7.84391C17.5823 7.02344 18.6951 6.5625 19.8555 6.5625Z" fill="#B3E5FC"/>
  <path d="M54.8555 43.75H48.293V6.5625H50.4805C51.6408 6.5625 52.7536 7.02344 53.5741 7.84391C54.3945 8.66438 54.8555 9.77718 54.8555 10.9375V43.75Z" fill="#4FC3F7"/>
  <path d="M54.8555 26.25H63.6055V43.75H54.8555V26.25Z" fill="#29B6F6"/>
  <path d="M26.418 19.6875C27.6261 19.6875 28.6055 18.7081 28.6055 17.5C28.6055 16.2919 27.6261 15.3125 26.418 15.3125C25.2098 15.3125 24.2305 16.2919 24.2305 17.5C24.2305 18.7081 25.2098 19.6875 26.418 19.6875Z" fill="#1E88E5"/>
  <path d="M43.918 19.6875C45.1261 19.6875 46.1055 18.7081 46.1055 17.5C46.1055 16.2919 45.1261 15.3125 43.918 15.3125C42.7098 15.3125 41.7305 16.2919 41.7305 17.5C41.7305 18.7081 42.7098 19.6875 43.918 19.6875Z" fill="#1E88E5"/>
  <path d="M26.418 35C27.6261 35 28.6055 34.0206 28.6055 32.8125C28.6055 31.6044 27.6261 30.625 26.418 30.625C25.2098 30.625 24.2305 31.6044 24.2305 32.8125C24.2305 34.0206 25.2098 35 26.418 35Z" fill="#1E88E5"/>
  <path d="M43.918 35C45.1261 35 46.1055 34.0206 46.1055 32.8125C46.1055 31.6044 45.1261 30.625 43.918 30.625C42.7098 30.625 41.7305 31.6044 41.7305 32.8125C41.7305 34.0206 42.7098 35 43.918 35Z" fill="#1E88E5"/>
  <path d="M63.6055 24.0625H57.043V10.9375C57.043 9.19702 56.3516 7.52782 55.1209 6.29711C53.8902 5.0664 52.221 4.375 50.4805 4.375H19.8555C18.115 4.375 16.4458 5.0664 15.2151 6.29711C13.9844 7.52782 13.293 9.19702 13.293 10.9375V24.0625H6.73047C6.15031 24.0625 5.59391 24.293 5.18367 24.7032C4.77344 25.1134 4.54297 25.6698 4.54297 26.25V52.5C4.54297 53.0802 4.77344 53.6366 5.18367 54.0468C5.59391 54.457 6.15031 54.6875 6.73047 54.6875H8.91797V59.0625C8.91797 60.803 9.60937 62.4722 10.8401 63.7029C12.0708 64.9336 13.74 65.625 15.4805 65.625C17.221 65.625 18.8902 64.9336 20.1209 63.7029C21.3516 62.4722 22.043 60.803 22.043 59.0625V54.6875H48.293V59.0625C48.293 60.803 48.9844 62.4722 50.2151 63.7029C51.4458 64.9336 53.115 65.625 54.8555 65.625C56.596 65.625 58.2652 64.9336 59.4959 63.7029C60.7266 62.4722 61.418 60.803 61.418 59.0625V54.6875H63.6055C64.1856 54.6875 64.742 54.457 65.1523 54.0468C65.5625 53.6366 65.793 53.0802 65.793 52.5V26.25C65.793 25.6698 65.5625 25.1134 65.1523 24.7032C64.742 24.293 64.1856 24.0625 63.6055 24.0625ZM61.418 28.4375V41.5625H57.043V28.4375H61.418ZM17.668 10.9375C17.668 10.3573 17.8984 9.80094 18.3087 9.3907C18.7189 8.98047 19.2753 8.75 19.8555 8.75H50.4805C51.0606 8.75 51.617 8.98047 52.0273 9.3907C52.4375 9.80094 52.668 10.3573 52.668 10.9375V41.5625H17.668V10.9375ZM8.91797 28.4375H13.293V41.5625H8.91797V28.4375ZM17.668 59.0625C17.668 59.6427 17.4375 60.1991 17.0273 60.6093C16.617 61.0195 16.0606 61.25 15.4805 61.25C14.9003 61.25 14.3439 61.0195 13.9337 60.6093C13.5234 60.1991 13.293 59.6427 13.293 59.0625V54.6875H17.668V59.0625ZM57.043 59.0625C57.043 59.6427 56.8125 60.1991 56.4023 60.6093C55.992 61.0195 55.4356 61.25 54.8555 61.25C54.2753 61.25 53.7189 61.0195 53.3087 60.6093C52.8984 60.1991 52.668 59.6427 52.668 59.0625V54.6875H57.043V59.0625ZM61.418 50.3125H8.91797V45.9375H61.418V50.3125Z" fill="#1E88E5"/>
</svg>
