<svg xmlns="http://www.w3.org/2000/svg" width="71" height="71" viewBox="0 0 71 71" fill="none">
  <g clip-path="url(#clip0_5569_2783)">
    <path d="M63.6641 29.0537V51.7699C63.6641 52.9025 62.7459 53.8207 61.6133 53.8207C60.4807 53.8207 59.5625 52.9025 59.5625 51.7699V29.0537H63.6641Z" fill="#9B501E"/>
    <path d="M45.8906 12.6475V35.3637C45.8906 36.4963 44.9724 37.4145 43.8398 37.4145C42.7073 37.4145 41.7891 36.4963 41.7891 35.3637V12.6475H45.8906Z" fill="#9B501E"/>
    <path d="M28.1172 2.55078V18.957C28.1172 20.0896 27.199 21.0078 26.0664 21.0078C24.9338 21.0078 24.0156 20.0896 24.0156 18.957V2.55078H28.1172Z" fill="#B96723"/>
    <path d="M10.3438 2.55078V18.957C10.3438 20.0896 9.42555 21.0078 8.29297 21.0078C7.16039 21.0078 6.24219 20.0896 6.24219 18.957V2.55078H10.3438Z" fill="#B96723"/>
    <path d="M64.3477 70.5H2.55078C1.4182 70.5 0.5 69.5818 0.5 68.4492V27.1602C0.5 26.0276 1.4182 25.1094 2.55078 25.1094H30.8516V41.5156H48.625V57.9219H66.3984V68.4492C66.3984 69.5818 65.4802 70.5 64.3477 70.5Z" fill="#EBF1F5"/>
    <path d="M48.625 41.5156H35.5V70.5H64.3477C65.4802 70.5 66.3984 69.5818 66.3984 68.4492V57.9219H48.625V41.5156Z" fill="#CDDCE6"/>
    <path d="M29.8252 27.1602H0.5V16.9062H29.8252C32.6568 16.9062 34.9522 19.2016 34.9522 22.0332C34.9522 24.8648 32.6568 27.1602 29.8252 27.1602Z" fill="#49AAFF"/>
    <path d="M48.625 49.7188H65.373C68.2046 49.7188 70.5 52.0141 70.5 54.8457C70.5 57.6773 68.2046 59.9727 65.373 59.9727H48.625C47.4924 59.9727 46.5742 59.0545 46.5742 57.9219V51.7695C46.5742 50.637 47.4924 49.7188 48.625 49.7188Z" fill="#1E78DE"/>
    <path d="M30.8516 33.3125H47.5996C50.4312 33.3125 52.7266 35.6079 52.7266 38.4395C52.7266 41.271 50.4312 43.5664 47.5996 43.5664H30.8516C29.719 43.5664 28.8008 42.6482 28.8008 41.5156V35.3633C28.8008 34.2307 29.719 33.3125 30.8516 33.3125Z" fill="#49AAFF"/>
    <path d="M47.5996 33.3125H35.5V43.5664H47.5996C50.4312 43.5664 52.7266 41.271 52.7266 38.4395C52.7266 35.6079 50.4312 33.3125 47.5996 33.3125Z" fill="#1E78DE"/>
    <path d="M69.8402 33.8564L34.2933 1.04387L34.2918 1.04551C33.9262 0.707949 33.4392 0.5 32.9023 0.5H2.55078C1.4182 0.5 0.5 1.4182 0.5 2.55078C0.5 3.68336 1.4182 4.60156 2.55078 4.60156H32.1005L67.0582 36.8702C67.4525 37.2343 67.9513 37.4141 68.4487 37.4141C69.0012 37.4141 69.5519 37.1922 69.9561 36.7543C70.7245 35.9221 70.6725 34.6246 69.8402 33.8564Z" fill="#B96723"/>
    <path d="M35.5 2.1582V7.74002L67.0582 36.8707C67.4525 37.2348 67.9513 37.4146 68.4487 37.4146C69.0012 37.4146 69.5519 37.1927 69.9561 36.7547C70.7244 35.9225 70.6724 34.6251 69.8401 33.8569L35.5 2.1582Z" fill="#9B501E"/>
  </g>
  <defs>
    <clipPath id="clip0_5569_2783">
      <rect width="70" height="70" fill="white" transform="translate(0.5 0.5)"/>
    </clipPath>
  </defs>
</svg>
