<svg xmlns="http://www.w3.org/2000/svg" width="70" height="70" viewBox="0 0 70 70" fill="none">
  <path d="M40.194 47.7295H29.8077C28.6723 47.7295 27.752 48.6499 27.752 49.7852V57.6595C27.752 58.7948 28.6723 59.7152 29.8077 59.7152H40.194C41.3294 59.7152 42.2497 58.7948 42.2497 57.6595V49.7852C42.2497 48.6499 41.3294 47.7295 40.194 47.7295Z" fill="#07485E"/>
  <path d="M2.05664 11.9287H67.9454V49.785H2.05664V11.9287Z" fill="#90DFFA"/>
  <path d="M40.1931 47.7295H35V59.7152H40.1931C41.3284 59.7152 42.2488 58.7948 42.2488 57.6595V49.7852C42.2488 48.6499 41.3284 47.7295 40.1931 47.7295Z" fill="#04303E"/>
  <path d="M35 11.9287H67.9444V49.785H35V11.9287Z" fill="#60D1F7"/>
  <path d="M47.7955 60.1261H22.2061C21.0708 60.1261 20.1504 59.2057 20.1504 58.0703C20.1504 56.935 21.0708 56.0146 22.2061 56.0146H47.7955C48.9308 56.0146 49.8512 56.935 49.8512 58.0703C49.8512 59.2057 48.9308 60.1261 47.7955 60.1261Z" fill="#09607D"/>
  <path d="M67.9443 51.8408H2.0557C0.920391 51.8408 0 50.9204 0 49.7851V11.9287C0 10.7934 0.920391 9.87305 2.0557 9.87305H67.9443C69.0796 9.87305 70 10.7934 70 11.9287V49.7851C70 50.9204 69.0796 51.8408 67.9443 51.8408ZM4.11141 47.7294H65.8886V13.9845H4.11141V47.7294Z" fill="#09607D"/>
  <path d="M47.7947 56.0146H35V60.1261H47.7947C48.93 60.1261 49.8504 59.2057 49.8504 58.0703C49.8504 56.935 48.93 56.0146 47.7947 56.0146Z" fill="#07485E"/>
  <path d="M67.9443 9.87305H35V13.9845H65.8886V47.7294H35V51.8408H67.9443C69.0796 51.8408 70 50.9204 70 49.7851V11.9287C70 10.7934 69.0796 9.87305 67.9443 9.87305Z" fill="#07485E"/>
</svg>
