<svg xmlns="http://www.w3.org/2000/svg" width="70" height="70" viewBox="0 0 70 70" fill="none">
  <g clip-path="url(#clip0_5569_2669)">
    <path d="M52.2964 50.7944C51.7217 50.7944 51.2559 50.3285 51.2559 49.7538V42.9253C51.2559 41.9864 51.8848 41.1454 52.7852 40.8797L67.2649 36.6089C67.6499 36.4954 67.9187 36.1358 67.9187 35.7344V30.7732C67.9187 30.2705 67.5098 29.8615 67.0071 29.8615H62.9375C62.3628 29.8615 61.8968 29.3956 61.8968 28.8208C61.8968 28.2461 62.3626 27.7803 62.9375 27.7803H67.0071C68.6573 27.7803 70 29.123 70 30.7732V35.7344C70 37.052 69.1175 38.2324 67.8538 38.6051L53.374 42.8759C53.3522 42.8824 53.337 42.9026 53.337 42.9253V49.7538C53.3371 50.3285 52.8713 50.7944 52.2964 50.7944Z" fill="#7D8C97"/>
    <path d="M43.5826 9.76182V55.906C43.5826 56.1957 43.3477 56.4308 43.0578 56.4308H6.37238C6.08268 56.4308 5.84766 56.1959 5.84766 55.906V3.9834H37.7358C40.9644 3.9834 43.5826 6.53156 43.5826 9.76182Z" fill="#62A4FB"/>
    <path d="M37.7358 3.9834H5.84766V6.29053H34.6595C37.888 6.29053 40.5061 8.90691 40.5061 12.1372V56.4306H43.0578C43.3476 56.4306 43.5826 56.1957 43.5826 55.9059V9.76182C43.5826 6.53156 40.9644 3.9834 37.7358 3.9834Z" fill="#3694F5"/>
    <path d="M15.8122 25.4771C15.5499 25.4771 15.2874 25.3771 15.0871 25.1768L12.8199 22.9096C12.4194 22.5091 12.4194 21.8598 12.8199 21.4595C13.2205 21.0591 13.8696 21.0591 14.27 21.4595L16.5373 23.7267C16.9377 24.1272 16.9377 24.7764 16.5373 25.1768C16.3371 25.3771 16.0746 25.4771 15.8122 25.4771Z" fill="#D7E3F2"/>
    <path d="M25.8493 25.4771C25.587 25.4771 25.3245 25.3771 25.1242 25.1768L22.857 22.9096C22.4565 22.5091 22.4565 21.8598 22.857 21.4595C23.2576 21.0591 23.9067 21.0591 24.3072 21.4595L26.5744 23.7267C26.9748 24.1272 26.9748 24.7764 26.5744 25.1768C26.3741 25.3771 26.1116 25.4771 25.8493 25.4771Z" fill="#D7E3F2"/>
    <path d="M35.8864 25.4771C35.6241 25.4771 35.3616 25.3771 35.1613 25.1768L32.8941 22.9096C32.4936 22.5091 32.4936 21.8598 32.8941 21.4595C33.2947 21.0591 33.9438 21.0591 34.3443 21.4595L36.6115 23.7267C37.0119 24.1272 37.0119 24.7764 36.6115 25.1768C36.4113 25.3771 36.1488 25.4771 35.8864 25.4771Z" fill="#D7E3F2"/>
    <path d="M15.8122 36.5417C15.5497 36.5417 15.2874 36.4416 15.0871 36.2414L12.8199 33.974C12.4194 33.5736 12.4194 32.9243 12.82 32.524C13.2204 32.1235 13.8697 32.1235 14.27 32.524L16.5372 34.7912C16.9377 35.1916 16.9377 35.8409 16.5371 36.2412C16.3371 36.4416 16.0746 36.5417 15.8122 36.5417Z" fill="#D7E3F2"/>
    <path d="M25.8493 36.5417C25.5868 36.5417 25.3245 36.4416 25.1242 36.2414L22.857 33.974C22.4565 33.5736 22.4565 32.9243 22.8571 32.524C23.2575 32.1235 23.9068 32.1235 24.3071 32.524L26.5743 34.7912C26.9748 35.1916 26.9748 35.8409 26.5742 36.2412C26.3741 36.4416 26.1115 36.5417 25.8493 36.5417Z" fill="#D7E3F2"/>
    <path d="M35.8864 36.5417C35.6239 36.5417 35.3616 36.4416 35.1613 36.2414L32.8941 33.974C32.4936 33.5736 32.4936 32.9243 32.8942 32.524C33.2947 32.1235 33.9439 32.1235 34.3442 32.524L36.6115 34.7912C37.0119 35.1916 37.0119 35.8409 36.6113 36.2412C36.4113 36.4416 36.1488 36.5417 35.8864 36.5417Z" fill="#D7E3F2"/>
    <path d="M15.8122 47.606C15.5499 47.606 15.2874 47.506 15.0871 47.3057L12.8199 45.0385C12.4194 44.638 12.4194 43.9887 12.8199 43.5884C13.2205 43.188 13.8696 43.188 14.27 43.5884L16.5373 45.8556C16.9377 46.2561 16.9377 46.9054 16.5373 47.3057C16.3371 47.506 16.0746 47.606 15.8122 47.606Z" fill="#D7E3F2"/>
    <path d="M25.8493 47.606C25.587 47.606 25.3245 47.506 25.1242 47.3057L22.857 45.0385C22.4565 44.638 22.4565 43.9887 22.857 43.5884C23.2576 43.188 23.9067 43.188 24.3072 43.5884L26.5744 45.8556C26.9748 46.2561 26.9748 46.9054 26.5744 47.3057C26.3741 47.506 26.1116 47.606 25.8493 47.606Z" fill="#D7E3F2"/>
    <path d="M35.8864 47.606C35.6241 47.606 35.3616 47.506 35.1613 47.3057L32.8941 45.0385C32.4936 44.638 32.4936 43.9887 32.8941 43.5884C33.2947 43.188 33.9438 43.188 34.3443 43.5884L36.6115 45.8556C37.0119 46.2561 37.0119 46.9054 36.6115 47.3057C36.4113 47.506 36.1488 47.606 35.8864 47.606Z" fill="#D7E3F2"/>
    <path d="M62.0281 33.0991H40.7461C40.2434 33.0991 39.8359 32.6917 39.8359 32.189V25.4541C39.8359 24.9514 40.2434 24.5439 40.7461 24.5439H62.0283C62.531 24.5439 62.9384 24.9514 62.9384 25.4541V32.189C62.9383 32.6917 62.5308 33.0991 62.0281 33.0991Z" fill="#D7E3F2"/>
    <path d="M62.0281 30.2324H40.7461C40.2434 30.2324 39.8359 29.825 39.8359 29.3223V32.188C39.8359 32.6907 40.2434 33.0982 40.7461 33.0982H62.0283C62.531 33.0982 62.9384 32.6907 62.9384 32.188V29.3223C62.9383 29.825 62.5308 30.2324 62.0281 30.2324Z" fill="#B7CEE9"/>
    <path d="M54.532 66.0173H50.0602C49.6581 66.0173 49.332 65.6913 49.332 65.2891V50.4821C49.332 50.08 49.658 49.7539 50.0602 49.7539H54.532C54.9341 49.7539 55.2602 50.0798 55.2602 50.4821V65.2891C55.2602 65.6912 54.9342 66.0173 54.532 66.0173Z" fill="#F29B4E"/>
    <path d="M31.8871 9.76182C31.8871 6.53156 34.5052 3.9834 37.7355 3.9834H5.84719C2.61803 3.9834 0 6.53225 0 9.76141C0 11.6555 0.900703 13.3392 2.29701 14.4077C2.35826 14.4546 2.43414 14.4789 2.51125 14.4789H33.3406C33.651 14.4789 33.8077 14.1046 33.5889 13.8846C32.5376 12.8276 31.8871 11.3702 31.8871 9.76182Z" fill="#D7E3F2"/>
  </g>
  <defs>
    <clipPath id="clip0_5569_2669">
      <rect width="70" height="70" fill="white"/>
    </clipPath>
  </defs>
</svg>
