<svg width="70" height="70" viewBox="0 0 70 70" fill="none" xmlns="http://www.w3.org/2000/svg">
<path d="M6.25008 21.9189C5.44137 21.9202 4.65973 22.2104 4.04621 22.7373C3.43269 23.2642 3.02769 23.993 2.9043 24.7922C3.02627 25.5927 3.43066 26.323 4.04432 26.8512C4.65798 27.3794 5.4404 27.6706 6.25008 27.6721H59.3735C60.1824 27.6708 60.9642 27.3804 61.5777 26.8533C62.1912 26.3262 62.5961 25.5971 62.7193 24.7977C62.5959 23.9985 62.1909 23.2696 61.5774 22.7428C60.9639 22.2159 60.1822 21.9256 59.3735 21.9244L6.25008 21.9189Z" fill="#5FB8E0"/>
<path d="M53.3746 37.1621C49.8759 37.1636 46.4979 38.4414 43.8742 40.7559C41.2504 43.0704 39.5611 46.2625 39.123 49.7337C39.4796 52.546 40.6592 55.1902 42.5137 57.3343C44.3682 59.4783 46.8149 61.0266 49.5465 61.7846V55.9155C48.1019 55.2227 46.8729 54.1501 45.991 52.8124C45.1092 51.4748 44.6077 49.9225 44.5403 48.3218C44.4729 46.7211 44.8421 45.1321 45.6083 43.7251C46.3745 42.318 47.509 41.1458 48.8902 40.334V47.486L53.3659 50.0016L57.8415 47.486V40.334C59.1646 41.1177 60.2616 42.2314 61.0254 43.5661C61.7892 44.9008 62.1936 46.4109 62.199 47.9487C62.2113 49.6168 61.7456 51.2535 60.8571 52.6653C59.9686 54.0771 58.6945 55.205 57.1852 55.9155V61.7846C59.9184 61.0281 62.367 59.4804 64.2232 57.3363C66.0793 55.1921 67.2602 52.5471 67.6174 49.7337C67.1796 46.264 65.4915 43.073 62.8696 40.7588C60.2477 38.4445 56.8718 37.1657 53.3746 37.1621Z" fill="#5FB8E0"/>
<path d="M14.3164 37.9936V34.6533H12.1289V37.9936C12.1327 40.0196 12.9393 41.9616 14.3721 43.394C15.8049 44.8264 17.7471 45.6325 19.7731 45.6357V43.4482C18.3267 43.4467 16.94 42.8716 15.917 41.8491C14.8941 40.8266 14.3184 39.44 14.3164 37.9936Z" fill="#3282B8"/>
<path d="M60.4756 34.1995V28.6006C61.4416 28.3564 62.2987 27.7974 62.9117 27.0119C63.5247 26.2264 63.8586 25.2592 63.8608 24.2628V22.3695C63.8593 21.1786 63.3856 20.0369 62.5435 19.1948C61.7014 18.3527 60.5597 17.8789 59.3688 17.8775H38.4016V11.2658H39.5664C39.8565 11.2658 40.1347 11.1505 40.3398 10.9454C40.5449 10.7403 40.6602 10.4621 40.6602 10.172V4.27344C40.6602 3.98336 40.5449 3.70516 40.3398 3.50004C40.1347 3.29492 39.8565 3.17969 39.5664 3.17969H26.0466C25.7565 3.17969 25.4783 3.29492 25.2732 3.50004C25.068 3.70516 24.9528 3.98336 24.9528 4.27344V10.172C24.9528 10.4621 25.068 10.7403 25.2732 10.9454C25.4783 11.1505 25.7565 11.2658 26.0466 11.2658H27.2114V17.8786H6.24422C5.05311 17.8795 3.91099 18.3528 3.06844 19.1947C2.2259 20.0367 1.75174 21.1784 1.75 22.3695V24.2628C1.75248 25.2599 2.08719 26.2277 2.70124 27.0133C3.31529 27.7989 4.17364 28.3574 5.14062 28.6006V37.1527C5.1476 40.8887 6.50493 44.4962 8.96239 47.3103C11.4199 50.1243 14.8118 51.9551 18.5128 52.4652V54.4077C18.5143 55.495 18.9469 56.5374 19.7157 57.3063C20.4846 58.0752 21.527 58.5078 22.6144 58.5092H26.0138V60.9702C26.0364 62.7576 26.7624 64.4642 28.0344 65.7202C29.3065 66.9762 31.0221 67.6805 32.8098 67.6805C34.5974 67.6805 36.313 66.9762 37.5851 65.7202C38.8571 64.4642 39.5831 62.7576 39.6058 60.9702V58.5158H42.1214C43.6627 60.1565 45.5437 61.4407 47.633 62.2786C49.7224 63.1165 51.9695 63.488 54.2173 63.3669C56.4651 63.2459 58.6594 62.6353 60.6466 61.5778C62.6339 60.5204 64.3661 59.0416 65.7223 57.2449C67.0785 55.4482 68.0258 53.377 68.4981 51.176C68.9703 48.975 68.9561 46.6974 68.4564 44.5025C67.9567 42.3076 66.9836 40.2483 65.605 38.4687C64.2265 36.6891 62.4759 35.2321 60.4756 34.1995ZM27.1403 5.36719H38.4727V9.07828H27.1403V5.36719ZM29.3989 11.2658H36.2141V17.8786H29.3989V11.2658ZM3.9375 24.2628V22.3695C3.93837 21.7586 4.18145 21.1729 4.61344 20.7409C5.04544 20.3089 5.6311 20.0659 6.24203 20.065H59.3688C59.9797 20.0659 60.5653 20.3089 60.9973 20.7409C61.4293 21.1729 61.6724 21.7586 61.6733 22.3695V24.2628C61.6727 24.8739 61.4298 25.4599 60.9977 25.8921C60.5657 26.3243 59.9799 26.5676 59.3688 26.5684H6.24422C5.63272 26.5681 5.04633 26.3252 4.61383 25.8929C4.18133 25.4606 3.93808 24.8743 3.9375 24.2628ZM7.32812 37.1527V28.7559H58.2969V33.2709C55.971 32.4819 53.4904 32.2592 51.0612 32.6214C48.632 32.9837 46.3243 33.9203 44.3298 35.3536C42.3353 36.7869 40.7116 38.6754 39.5936 40.8622C38.4756 43.0491 37.8956 45.4711 37.9017 47.9272C37.9062 48.7703 37.9794 49.6116 38.1205 50.4428H20.6205C17.0964 50.4399 13.7174 49.0388 11.2253 46.5471C8.73322 44.0555 7.3316 40.6767 7.32812 37.1527ZM37.415 60.9723C37.3964 62.1823 36.9026 63.3364 36.0404 64.1854C35.1782 65.0345 34.0166 65.5104 32.8065 65.5104C31.5964 65.5104 30.4348 65.0345 29.5726 64.1854C28.7103 63.3364 28.2166 62.1823 28.198 60.9723V58.5158H37.415V60.9723ZM38.5088 56.3239H22.6111C22.1037 56.323 21.6174 56.1211 21.2586 55.7623C20.8998 55.4036 20.6979 54.9172 20.697 54.4098V52.6281H38.6345C39.0551 53.9327 39.6472 55.1755 40.3955 56.3239H38.5088ZM50.6406 60.922V55.9116C50.6403 55.7058 50.582 55.5042 50.4723 55.3301C50.3626 55.1559 50.206 55.0163 50.0205 54.9272C48.9149 54.3982 47.9509 53.614 47.2079 52.6393C46.4649 51.6646 45.9641 50.5273 45.747 49.3211C45.5298 48.1149 45.6024 46.8743 45.9588 45.7017C46.3152 44.5291 46.9452 43.4579 47.7969 42.5766V47.482C47.7968 47.6762 47.8485 47.8669 47.9465 48.0345C48.0445 48.2021 48.1854 48.3406 48.3547 48.4358L52.8303 50.9514C52.9941 51.0423 53.1784 51.09 53.3657 51.09C53.553 51.09 53.7373 51.0423 53.9011 50.9514L58.3778 48.4358C58.5471 48.3406 58.688 48.2021 58.786 48.0345C58.884 47.8669 58.9357 47.6762 58.9356 47.482V42.5667C60.3178 44.0169 61.094 45.9402 61.1056 47.9436C61.1192 49.4023 60.7144 50.8344 59.9389 52.07C59.1635 53.3056 58.0501 54.293 56.7306 54.9152C56.5396 55.0023 56.3777 55.1426 56.2642 55.3193C56.1507 55.496 56.0905 55.7016 56.0908 55.9116V60.922C54.2933 61.2997 52.4381 61.2997 50.6406 60.922ZM58.2794 60.2527V56.5842C59.8093 55.7214 61.0808 54.4655 61.9623 52.9463C62.8438 51.4271 63.3033 49.7 63.2931 47.9436C63.2849 46.214 62.8285 44.516 61.9686 43.0153C61.1087 41.5146 59.8746 40.2623 58.3866 39.3806C58.2201 39.2845 58.0313 39.234 57.8391 39.2341C57.647 39.2342 57.4582 39.2849 57.2919 39.3812C57.1255 39.4774 56.9875 39.6158 56.8917 39.7824C56.7958 39.9489 56.7456 40.1378 56.7459 40.33V46.8411L53.3641 48.7398L49.9844 46.8422V40.33C49.9845 40.1371 49.9336 39.9476 49.8368 39.7807C49.7401 39.6138 49.6009 39.4755 49.4334 39.3797C49.2659 39.284 49.0761 39.2343 48.8832 39.2356C48.6903 39.2369 48.5012 39.2892 48.335 39.3872C46.8342 40.2694 45.5918 41.5308 44.7324 43.0449C43.8731 44.5589 43.427 46.2723 43.439 48.0132C43.451 49.7541 43.9205 51.4612 44.8006 52.9633C45.6807 54.4653 46.9403 55.7096 48.4531 56.5711V60.2537C45.5832 59.1112 43.2011 57.0042 41.7168 54.2952C40.2324 51.5862 39.7386 48.4446 40.3203 45.4108C40.9019 42.3771 42.5227 39.6409 44.9038 37.673C47.2848 35.7051 50.2772 34.6286 53.3663 34.6286C56.4553 34.6286 59.4477 35.7051 61.8287 37.673C64.2098 39.6409 65.8306 42.3771 66.4122 45.4108C66.9939 48.4446 66.5001 51.5862 65.0157 54.2952C63.5314 57.0042 61.1493 59.1101 58.2794 60.2527Z" fill="#3282B8"/>
</svg>
