<svg xmlns="http://www.w3.org/2000/svg" width="70" height="70" viewBox="0 0 70 70" fill="none">
  <path d="M21.875 27.8027H26.25V48.1246H21.875V27.8027Z" fill="#6B7EB5"/>
  <path d="M41.5625 16.8652H15.3125C14.7323 16.8652 14.1759 17.0957 13.7657 17.5059C13.3555 17.9162 13.125 18.4726 13.125 19.0527V27.8027C13.125 28.3829 13.3555 28.9393 13.7657 29.3495C14.1759 29.7598 14.7323 29.9902 15.3125 29.9902H41.5625C42.1427 29.9902 42.6991 30.2207 43.1093 30.6309C43.5195 31.0412 43.75 31.5976 43.75 32.1777V34.9996C43.75 35.5798 43.9805 36.1362 44.3907 36.5464C44.8009 36.9566 45.3573 37.1871 45.9375 37.1871H54.6875C55.2677 37.1871 55.8241 36.9566 56.2343 36.5464C56.6445 36.1362 56.875 35.5798 56.875 34.9996V32.1777C56.875 28.1166 55.2617 24.2218 52.3901 21.3502C49.5184 18.4785 45.6236 16.8652 41.5625 16.8652Z" fill="#FAF7F5"/>
  <path d="M41.5625 16.8652H15.3125C14.7323 16.8652 14.1759 17.0957 13.7657 17.5059C13.3555 17.9162 13.125 18.4726 13.125 19.0527V21.2402H37.1875C41.2486 21.2402 45.1434 22.8535 48.0151 25.7252C50.8867 28.5968 52.5 32.4916 52.5 36.5527V37.1871H54.6875C55.2677 37.1871 55.8241 36.9566 56.2343 36.5464C56.6445 36.1362 56.875 35.5798 56.875 34.9996V32.1777C56.875 28.1166 55.2617 24.2218 52.3901 21.3502C49.5184 18.4785 45.6236 16.8652 41.5625 16.8652Z" fill="#F0E6E2"/>
  <path d="M15.3125 10.9375H4.375C3.16688 10.9375 2.1875 11.9169 2.1875 13.125V35C2.1875 36.2081 3.16688 37.1875 4.375 37.1875H15.3125C16.5206 37.1875 17.5 36.2081 17.5 35V13.125C17.5 11.9169 16.5206 10.9375 15.3125 10.9375Z" fill="#80B6FF"/>
  <path d="M6.5625 17.5C6.5625 16.9198 6.79297 16.3634 7.2032 15.9532C7.61344 15.543 8.16984 15.3125 8.75 15.3125H17.5V13.125C17.5 12.5448 17.2695 11.9884 16.8593 11.5782C16.4491 11.168 15.8927 10.9375 15.3125 10.9375H4.375C3.79484 10.9375 3.23844 11.168 2.8282 11.5782C2.41797 11.9884 2.1875 12.5448 2.1875 13.125V35C2.1875 35.5802 2.41797 36.1366 2.8282 36.5468C3.23844 36.957 3.79484 37.1875 4.375 37.1875H6.5625V17.5Z" fill="#60A4FF"/>
  <path d="M61.25 32.8125H39.375C37.6345 32.8125 35.9653 33.5039 34.7346 34.7346C33.5039 35.9653 32.8125 37.6345 32.8125 39.375V45.9375C32.8125 46.5177 33.043 47.0741 33.4532 47.4843C33.8634 47.8945 34.4198 48.125 35 48.125H65.625C66.2052 48.125 66.7616 47.8945 67.1718 47.4843C67.582 47.0741 67.8125 46.5177 67.8125 45.9375V39.375C67.8125 37.6345 67.1211 35.9653 65.8904 34.7346C64.6597 33.5039 62.9905 32.8125 61.25 32.8125Z" fill="#80B6FF"/>
  <path d="M61.2504 32.8125H39.3754C37.9685 32.8191 36.6011 33.2777 35.4746 34.1205C34.3482 34.9634 33.5224 36.1459 33.1191 37.4937C33.728 37.3007 34.3617 37.1975 35.0004 37.1875H56.8754C58.6159 37.1875 60.2851 37.8789 61.5158 39.1096C62.7465 40.3403 63.4379 42.0095 63.4379 43.75V48.125H65.6254C66.2056 48.125 66.762 47.8945 67.1722 47.4843C67.5824 47.0741 67.8129 46.5177 67.8129 45.9375V39.375C67.8129 37.6345 67.1215 35.9653 65.8908 34.7346C64.6601 33.5039 62.9909 32.8125 61.2504 32.8125Z" fill="#60A4FF"/>
  <path d="M24.0625 59.0625C22.7646 59.0625 21.4958 58.6776 20.4166 57.9565C19.3374 57.2354 18.4962 56.2105 17.9995 55.0114C17.5028 53.8122 17.3729 52.4927 17.6261 51.2197C17.8793 49.9467 18.5043 48.7774 19.4221 47.8596C20.3399 46.9418 21.5092 46.3168 22.7822 46.0636C24.0552 45.8104 25.3747 45.9403 26.5739 46.437C27.773 46.9337 28.7979 47.7749 29.519 48.8541C30.2401 49.9333 30.625 51.2021 30.625 52.5C30.625 54.2405 29.9336 55.9097 28.7029 57.1404C27.4722 58.3711 25.803 59.0625 24.0625 59.0625ZM24.0625 50.3125C23.6299 50.3125 23.2069 50.4408 22.8472 50.6812C22.4875 50.9215 22.2071 51.2632 22.0415 51.6629C21.876 52.0626 21.8326 52.5024 21.917 52.9268C22.0014 53.3511 22.2098 53.7409 22.5157 54.0468C22.8216 54.3527 23.2114 54.5611 23.6357 54.6455C24.0601 54.7299 24.4999 54.6866 24.8996 54.521C25.2993 54.3554 25.641 54.075 25.8813 53.7153C26.1217 53.3556 26.25 52.9327 26.25 52.5C26.25 51.9198 26.0195 51.3634 25.6093 50.9532C25.1991 50.543 24.6427 50.3125 24.0625 50.3125Z" fill="#6B7EB5"/>
  <path d="M41.5625 59.0625C40.9823 59.0625 40.4259 58.832 40.0157 58.4218C39.6055 58.0116 39.375 57.4552 39.375 56.875V52.5C39.375 51.9198 39.6055 51.3634 40.0157 50.9532C40.4259 50.543 40.9823 50.3125 41.5625 50.3125C42.1427 50.3125 42.6991 50.543 43.1093 50.9532C43.5195 51.3634 43.75 51.9198 43.75 52.5V56.875C43.75 57.4552 43.5195 58.0116 43.1093 58.4218C42.6991 58.832 42.1427 59.0625 41.5625 59.0625Z" fill="#60A4FF"/>
  <path d="M50.3125 59.0625C49.7323 59.0625 49.1759 58.832 48.7657 58.4218C48.3555 58.0116 48.125 57.4552 48.125 56.875V52.5C48.125 51.9198 48.3555 51.3634 48.7657 50.9532C49.1759 50.543 49.7323 50.3125 50.3125 50.3125C50.8927 50.3125 51.4491 50.543 51.8593 50.9532C52.2695 51.3634 52.5 51.9198 52.5 52.5V56.875C52.5 57.4552 52.2695 58.0116 51.8593 58.4218C51.4491 58.832 50.8927 59.0625 50.3125 59.0625Z" fill="#60A4FF"/>
  <path d="M59.0625 59.0625C58.4823 59.0625 57.9259 58.832 57.5157 58.4218C57.1055 58.0116 56.875 57.4552 56.875 56.875V52.5C56.875 51.9198 57.1055 51.3634 57.5157 50.9532C57.9259 50.543 58.4823 50.3125 59.0625 50.3125C59.6427 50.3125 60.1991 50.543 60.6093 50.9532C61.0195 51.3634 61.25 51.9198 61.25 52.5V56.875C61.25 57.4552 61.0195 58.0116 60.6093 58.4218C60.1991 58.832 59.6427 59.0625 59.0625 59.0625Z" fill="#60A4FF"/>
</svg>
