<svg xmlns="http://www.w3.org/2000/svg" width="70" height="70" viewBox="0 0 70 70" fill="none">
  <g clip-path="url(#clip0_5569_2715)">
    <path d="M30.2004 33.6978V26.2101C35.3405 23.9056 38.6508 18.7997 38.6545 13.1669H18.1236V-0.118164C10.8532 3.20413 7.65245 11.7909 10.9752 19.0613C12.4205 22.2269 14.9594 24.7644 18.1236 26.2101V33.6978" fill="#DADDDF"/>
    <path d="M28.993 13.167L16.7109 25.449C17.1671 25.7296 17.6395 25.9829 18.1239 26.2103V33.6979H30.2007V26.2103C35.3408 23.9057 38.6511 18.7998 38.6548 13.167H28.993Z" fill="#C7CACC"/>
    <path d="M37.4475 33.6975H30.2012V26.4512H35.0321L37.4475 33.6975Z" fill="#F2A46F"/>
    <path d="M30.2012 -0.118164V13.1669H38.6553C38.6567 7.47208 35.3607 2.29221 30.2012 -0.118164Z" fill="#B6B8BA"/>
    <path d="M19.332 17.874H30.2011V20.2895H19.332V17.874Z" fill="#B6B8BA"/>
    <path d="M37.4473 33.6982H60.3941V57.8524H37.4473V33.6982Z" fill="#4398D1"/>
    <path d="M37.4465 57.8524H13.896C12.2284 57.8524 10.877 56.5009 10.877 54.8333C10.877 53.1652 12.2284 51.8142 13.896 51.8142C12.2284 51.8142 10.877 50.4627 10.877 48.7946C10.877 47.127 12.2284 45.7755 13.896 45.7755C12.2284 45.7755 10.877 44.4241 10.877 42.756C10.877 41.0884 12.2284 39.7369 13.896 39.7369C12.2284 39.7369 10.877 38.3854 10.877 36.7173C10.877 35.0497 12.2284 33.6982 13.896 33.6982H37.4465V57.8524Z" fill="#FFB782"/>
    <path d="M47.1083 50.6059C47.1083 51.9398 46.0267 53.0209 44.6928 53.0209C43.3589 53.0209 42.2773 51.9398 42.2773 50.6059C42.2773 49.2715 43.3589 48.1904 44.6928 48.1904C46.0267 48.1904 47.1083 49.2715 47.1083 50.6059Z" fill="#5EB3D1"/>
    <path d="M18.123 57.8516V63.8902C18.123 67.225 20.8269 69.9288 24.1617 69.9288C27.496 69.9288 30.1999 67.225 30.1999 63.8902V57.8516H18.123ZM24.1617 66.3057C22.8269 66.3057 21.7462 65.2246 21.7462 63.8902C21.7462 62.5558 22.8269 61.4747 24.1617 61.4747C25.4961 61.4747 26.5767 62.5558 26.5767 63.8902C26.5767 65.2246 25.4961 66.3057 24.1617 66.3057Z" fill="#DADDDF"/>
    <path d="M22.9551 26.4512H25.3705V33.6975H22.9551V26.4512Z" fill="#B6B8BA"/>
    <path d="M18.123 57.8516H30.1999V60.267H18.123V57.8516Z" fill="#C7CACC"/>
  </g>
  <defs>
    <clipPath id="clip0_5569_2715">
      <rect width="70" height="70" fill="white"/>
    </clipPath>
  </defs>
</svg>
