<svg width="59" height="60" viewBox="0 0 59 60" fill="none" xmlns="http://www.w3.org/2000/svg">
<path d="M58.2518 58.6359C58.0651 59.0675 57.6451 59.3475 57.1668 59.3475H44.1701C43.8551 59.3475 43.5634 59.2309 43.3418 59.0092L30.9868 46.6425C27.0434 47.7042 22.8668 46.5959 19.9501 43.6792C17.0801 40.8092 15.9601 36.7375 16.9518 32.7942C17.0451 32.3859 17.3601 32.0592 17.7684 31.9542C18.1768 31.8375 18.6084 31.9542 18.9001 32.2575L24.5584 37.9159L29.3884 36.8892L30.4034 32.0709L24.7451 26.4009C24.4534 26.1092 24.3368 25.6775 24.4534 25.2692C24.5701 24.8609 24.8851 24.5459 25.2934 24.4525C29.2368 23.4725 33.2968 24.6042 36.1668 27.4625C39.0834 30.3675 40.1918 34.5325 39.1301 38.4875L57.9951 57.3525C58.3334 57.6792 58.4268 58.1925 58.2518 58.6359Z" fill="#3B4651"/>
<path d="M9.26333 4.28055C9.26333 4.09388 9.29833 3.91888 9.32167 3.73221L1.27167 3.68555H1.26C0.618333 3.68555 0.0933333 4.21055 0.0933333 4.85221L0 19.6805C0 20.3222 0.525 20.8472 1.16667 20.8589L9.21667 20.9055C9.205 20.7189 9.15833 20.5439 9.17 20.3572L9.26333 4.28055Z" fill="#3B4651"/>
<path d="M22.9023 4.37427L22.7973 20.4393C22.7856 22.4576 21.1406 24.1026 19.1223 24.1026H19.099L15.1556 24.0793C13.1256 24.0676 11.4923 22.3993 11.504 20.3693L11.5973 4.30427C11.609 3.32427 11.994 2.4026 12.694 1.71427C13.394 1.02594 14.2806 0.640935 15.2956 0.652601L19.239 0.675935C21.269 0.687601 22.914 2.34427 22.9023 4.37427Z" fill="#5C9EFE"/>
<path d="M57.8896 4.38592C57.6679 4.16426 57.3763 4.03592 57.0613 4.03592L49.0113 3.98926C49.0229 4.16426 49.0579 4.35092 49.0579 4.52592L48.9646 20.5909C48.9646 20.7776 48.9179 20.9526 48.9062 21.1393L56.9679 21.1859C57.6096 21.1859 58.1346 20.6726 58.1346 20.0309L58.2279 5.21426C58.2279 4.89926 58.0996 4.60759 57.8896 4.38592Z" fill="#3B4651"/>
<path d="M37.7642 4.42122C37.7642 4.23456 37.7992 4.05956 37.8226 3.88456L20.5092 3.83789C20.5209 4.02456 20.5676 4.19956 20.5559 4.38622L20.4509 20.4512C20.4509 20.6379 20.4159 20.8129 20.3926 20.9996L37.6942 21.0462C37.6826 20.8712 37.6476 20.6962 37.6476 20.5096L37.7642 4.42122Z" fill="#5C9EFE"/>
<path d="M46.7246 4.51392L46.6312 20.5789C46.6196 22.6089 44.9746 24.2423 42.9562 24.2423H42.9329L38.9896 24.2189C36.9596 24.2073 35.3146 22.5506 35.3262 20.5206L35.4312 4.44392C35.4312 3.46392 35.8162 2.54225 36.5162 1.85392C37.2162 1.16558 38.1379 0.780583 39.1296 0.79225L43.0729 0.815583C45.1029 0.82725 46.7362 2.48392 46.7246 4.51392Z" fill="#5C9EFE"/>
<path d="M10.6634 29.0613C10.6634 30.1113 10.2318 31.0447 9.54342 31.733C8.85509 32.4213 7.91009 32.8413 6.86009 32.8413H6.83675C4.74842 32.8297 3.05675 31.1147 3.06842 29.0147C3.06842 27.3347 5.26175 23.963 5.92675 22.9713C6.14842 22.6447 6.51009 22.458 6.89509 22.458H6.90675C7.29175 22.458 7.65342 22.6563 7.87509 22.983C8.52842 23.9863 10.6751 27.3813 10.6634 29.0613Z" fill="#3B4651"/>
</svg>
