<svg xmlns="http://www.w3.org/2000/svg" width="70" height="70" viewBox="0 0 70 70" fill="none">
  <path d="M38.5754 67.2555L33.3435 58.2774L33.2021 61.3196C33.263 61.502 33.1272 61.6904 32.9348 61.6904H16.7214C16.5291 61.6904 16.3934 61.502 16.4541 61.3196L17.7858 57.3242L16.5928 55.9951L13.5606 57.3242L9.64411 69.0732C9.49208 69.5292 9.83155 70.0002 10.3123 70.0002H13.0529C13.356 70.0002 13.6251 69.8062 13.7211 69.5187L14.8579 66.1083C14.8962 65.9934 15.0039 65.9157 15.1252 65.9157H34.5313C34.6526 65.9157 34.7602 65.9932 34.7986 66.1083L38.5754 67.2555Z" fill="#E29A6C"/>
  <path d="M39.3444 70.0004H36.6036C36.3008 70.0004 36.0319 69.806 35.936 69.5188L34.7993 66.1089C34.7993 66.1075 34.798 66.1046 34.7965 66.1033L33.2021 61.3202L31.8711 57.3244L33.9838 56.3506L36.0965 57.3244L40.012 69.0738C40.164 69.53 39.8247 70.0004 39.3444 70.0004Z" fill="#CE845C"/>
  <path d="M55.3216 19.3662H49.2653C48.6818 19.3662 48.209 19.8391 48.209 20.4225C48.209 21.006 48.6819 21.4788 49.2653 21.4788H51.2372V28.7323C51.2372 29.3158 51.7101 29.7886 52.2935 29.7886C52.8768 29.7886 53.3497 29.3156 53.3497 28.7323V21.4788H55.3216C55.9052 21.4788 56.3779 21.0059 56.3779 20.4225C56.3779 19.8391 55.905 19.3662 55.3216 19.3662Z" fill="#8C858E"/>
  <path d="M48.0665 27.3242L46.6914 29.2543L48.0665 31.5495H52.9961C53.385 31.5495 53.7003 31.8648 53.7003 32.2537V35.7749L55.562 36.7806L57.9257 35.7749V31.5496C57.9257 29.216 56.0339 27.3244 53.7004 27.3244H48.0665V27.3242Z" fill="#6F6571"/>
  <path d="M57.9271 31.5495V35.7748L55.5638 36.7805L53.7019 35.7748V31.5495C53.7019 29.2157 51.8104 27.3242 49.4766 27.3242H53.7019C56.0356 27.3241 57.9271 29.2156 57.9271 31.5495Z" fill="#5D5360"/>
  <path d="M46.6585 34.6482H43.8415L41.9551 29.4369L43.8415 24.2256H46.6585C47.4364 24.2256 48.067 24.8561 48.067 25.6341V33.2397C48.067 34.0175 47.4364 34.6482 46.6585 34.6482Z" fill="#8C858E"/>
  <path d="M22.7156 0.640369C21.6964 1.3226 21.0254 2.48443 21.0254 3.80295V4.22554L27.2935 5.44152V3.80513C27.2935 1.705 23.3198 0.235955 22.7156 0.640369Z" fill="#AD96ED"/>
  <path d="M28.6304 3.80283V4.22543L26.7971 4.83861L24.405 4.22543V3.80283C24.405 2.48459 23.7345 1.32398 22.7148 0.640801C23.3191 0.235156 24.0459 0 24.8276 0C26.9276 0 28.6304 1.70283 28.6304 3.80283Z" fill="#9D89E8"/>
  <path d="M36.3779 4.22559H9.33564C7.39096 4.22559 5.81445 5.80209 5.81445 7.74678V8.45102L22.9271 10.5637L39.899 8.45102V7.74678C39.8991 5.80209 38.3226 4.22559 36.3779 4.22559Z" fill="#C3AFF0"/>
  <path d="M43.8422 7.74678V8.45102L42.1515 9.15525L39.6169 8.45102V7.74678C39.6169 5.80168 38.0394 4.22559 36.0957 4.22559H40.321C42.2647 4.22559 43.8422 5.80168 43.8422 7.74678Z" fill="#AD96ED"/>
  <path d="M34.2651 57.3242H11.4482C8.33678 57.3242 5.81445 54.8018 5.81445 51.6904V12.6762L24.4304 10.5635L39.899 12.6762V51.6903C39.899 54.8018 37.3767 57.3242 34.2651 57.3242Z" fill="#CDF2F9"/>
  <path d="M43.8434 12.6763V51.6903C43.8434 54.8016 41.3208 57.3241 38.2097 57.3241H33.9844C37.0957 57.3241 39.6181 54.8015 39.6181 51.6903L33.9844 38.1248L39.6181 20.391V12.6763L41.0266 11.2979L43.8434 12.6763Z" fill="#B1F1F1"/>
  <path d="M41.4477 8.45117H4.40541C4.01645 8.45117 3.70117 8.76644 3.70117 9.15541V11.9724C3.70117 12.3613 4.01645 12.6766 4.40541 12.6766H41.4477C41.8367 12.6766 42.152 12.3613 42.152 11.9724V9.15541C42.152 8.76644 41.8365 8.45117 41.4477 8.45117Z" fill="#F3FEFF"/>
  <path d="M45.9549 9.15541V11.9724C45.9549 12.3611 45.6394 12.6766 45.2507 12.6766H41.0254C41.4141 12.6766 41.7296 12.3611 41.7296 11.9724V9.15541C41.7296 8.76672 41.4141 8.45117 41.0254 8.45117H45.2507C45.6394 8.45117 45.9549 8.76658 45.9549 9.15541Z" fill="#DBFCFC"/>
  <path d="M39.6165 51.6901C39.6165 52.468 38.986 53.0986 38.208 53.0986H11.4475C10.6696 53.0986 10.0391 52.468 10.0391 51.6901V20.3908C10.0391 19.422 10.4949 18.5098 11.2697 17.9282L11.8876 17.4643C12.9829 16.6421 14.4895 16.6421 15.5848 17.4643C16.68 18.2866 18.1867 18.2866 19.2819 17.4643C20.3772 16.6421 21.8838 16.6421 22.9791 17.4643C24.0743 18.2866 25.581 18.2866 26.6762 17.4643C27.7715 16.6421 29.2781 16.6421 30.3734 17.4643C31.4686 18.2866 32.9753 18.2866 34.0705 17.4643C35.1658 16.6421 36.6724 16.6421 37.7677 17.4643L38.3856 17.9282C39.1604 18.5098 39.6163 19.422 39.6163 20.3908V51.6901H39.6165Z" fill="#71DDF9"/>
  <path d="M55.3907 39.9998H52.2921C51.9032 39.9998 51.5879 39.6846 51.5879 39.2956V36.4787C51.5879 36.0897 51.9032 35.7744 52.2921 35.7744H55.3907C55.7797 35.7744 56.095 36.0897 56.095 36.4787V39.2956C56.0948 39.6846 55.7796 39.9998 55.3907 39.9998Z" fill="#8C858E"/>
  <path d="M60.0389 36.4787V39.2956C60.0389 39.6843 59.7234 39.9998 59.3347 39.9998H55.1094C55.4981 39.9998 55.8136 39.6843 55.8136 39.2956V36.4787C55.8136 36.09 55.4981 35.7744 55.1094 35.7744H59.3347C59.7234 35.7744 60.0389 36.09 60.0389 36.4787Z" fill="#7F7882"/>
  <path d="M53.7013 58.032C51.7015 57.2028 50.2949 55.2316 50.2949 52.932C50.2949 50.5322 52.1445 47.956 53.7021 46.2117C54.3747 45.4586 58.5157 49.4959 58.5157 52.932C58.5157 55.98 54.3519 58.3019 53.7013 58.032Z" fill="#71DDF9"/>
  <path d="M61.3323 52.9328C61.3323 54.4568 60.7154 55.837 59.7154 56.8342C58.7182 57.8341 57.338 58.4512 55.814 58.4512C55.0662 58.4512 54.3521 58.3019 53.7013 58.0314C54.376 57.7525 54.983 57.3426 55.49 56.8342C56.49 55.837 57.1068 54.4568 57.1068 52.9328C57.1068 50.5328 55.2576 47.9553 53.7012 46.2117C54.3744 45.4582 54.9928 44.861 55.3843 44.499C55.6266 44.2751 55.9998 44.2751 56.2435 44.499C57.5406 45.6975 61.3323 49.4961 61.3323 52.9328Z" fill="#23C7F7"/>
  <path d="M60.4113 53.58C59.4067 52.9013 58.7461 51.7518 58.7461 50.4482C58.7461 49.1424 59.5463 47.7601 60.41 46.6486C61.1016 45.7584 63.89 48.0966 63.89 50.4482C63.8901 52.5341 61.0141 53.9871 60.4113 53.58Z" fill="#CDF2F9"/>
  <path d="M66.2989 50.4483C66.2989 51.4905 65.8763 52.4356 65.1933 53.1187C64.5102 53.8032 63.5664 54.2257 62.5229 54.2257C61.7397 54.2257 61.0129 53.9877 60.4102 53.5791C60.6115 53.4439 60.7975 53.289 60.968 53.1185C61.651 52.4355 62.0736 51.4903 62.0736 50.4481C62.0736 49.1425 61.2737 47.7608 60.4102 46.6495C61.1017 45.7594 61.8341 45.0426 62.2285 44.6777C62.3948 44.5241 62.6511 44.5241 62.8159 44.6777C63.7045 45.4976 66.2989 48.0977 66.2989 50.4483Z" fill="#B1F1F1"/>
  <path d="M24.8284 30.9156C24.0518 30.9156 23.4199 30.2837 23.4199 29.5071C23.4199 28.7305 24.0518 28.0986 24.8284 28.0986C25.605 28.0986 26.2369 28.7305 26.2369 29.5071C26.2369 30.2837 25.605 30.9156 24.8284 30.9156Z" fill="#23C7F7"/>
  <path d="M16.7288 25.2818C15.9522 25.2818 15.3203 24.6499 15.3203 23.8733C15.3203 23.0968 15.9522 22.4648 16.7288 22.4648C17.5054 22.4648 18.1373 23.0968 18.1373 23.8733C18.1373 24.6499 17.5054 25.2818 16.7288 25.2818Z" fill="#23C7F7"/>
  <path d="M32.9261 25.2818C32.1495 25.2818 31.5176 24.6499 31.5176 23.8733C31.5176 23.0968 32.1495 22.4648 32.9261 22.4648C33.7026 22.4648 34.3345 23.0968 34.3345 23.8733C34.3345 24.6499 33.7026 25.2818 32.9261 25.2818Z" fill="#23C7F7"/>
  <path d="M24.8284 42.1832C24.0518 42.1832 23.4199 41.5513 23.4199 40.7747C23.4199 39.9981 24.0518 39.3662 24.8284 39.3662C25.605 39.3662 26.2369 39.9981 26.2369 40.7747C26.2369 41.5513 25.605 42.1832 24.8284 42.1832Z" fill="#23C7F7"/>
  <path d="M16.7288 36.5494C15.9522 36.5494 15.3203 35.9175 15.3203 35.1409C15.3203 34.3643 15.9522 33.7324 16.7288 33.7324C17.5054 33.7324 18.1373 34.3643 18.1373 35.1409C18.1373 35.9175 17.5054 36.5494 16.7288 36.5494Z" fill="#23C7F7"/>
  <path d="M32.9261 36.5494C32.1495 36.5494 31.5176 35.9175 31.5176 35.1409C31.5176 34.3643 32.1495 33.7324 32.9261 33.7324C33.7026 33.7324 34.3345 34.3643 34.3345 35.1409C34.3345 35.9175 33.7026 36.5494 32.9261 36.5494Z" fill="#23C7F7"/>
  <path d="M16.7288 47.817C15.9522 47.817 15.3203 47.185 15.3203 46.4085C15.3203 45.6319 15.9522 45 16.7288 45C17.5054 45 18.1373 45.6319 18.1373 46.4085C18.1373 47.185 17.5054 47.817 16.7288 47.817Z" fill="#23C7F7"/>
  <path d="M32.9261 47.817C32.1495 47.817 31.5176 47.185 31.5176 46.4085C31.5176 45.6319 32.1495 45 32.9261 45C33.7026 45 34.3345 45.6319 34.3345 46.4085C34.3345 47.185 33.7026 47.817 32.9261 47.817Z" fill="#23C7F7"/>
</svg>
