<svg width="66" height="66" viewBox="0 0 66 66" fill="none" xmlns="http://www.w3.org/2000/svg">
<path d="M65 18.0185V36.2485C65 37.0485 64.71 37.8285 64.18 38.4285L57.12 46.4785C56.49 47.1985 55.58 47.6085 54.63 47.6085H11.37C10.42 47.6085 9.51 47.1985 8.88 46.4785L1.82 38.4285C1.29 37.8285 1 37.0485 1 36.2485V18.0185C1 16.1885 2.48 14.7085 4.31 14.7085H61.69C63.52 14.7085 65 16.1885 65 18.0185Z" fill="white"/>
<path d="M54.04 18.0185C51.64 21.3485 49.15 26.3885 50.95 31.4085C51.35 32.5385 51.18 33.7885 50.49 34.7685C49.8 35.7485 48.68 36.3285 47.49 36.3285C47.21 36.3285 46.92 36.2985 46.64 36.2285C38.11 34.1985 31.33 29.2385 26.49 21.4985C25.79 20.3685 25.75 18.9385 26.4 17.7685C27.05 16.5985 28.28 15.8785 29.61 15.8785H30.12C31.88 15.8785 33.5 15.4285 34.96 14.7085H55.41C55.22 15.8885 54.76 17.0185 54.04 18.0185Z" fill="#E6E6EF"/>
<path d="M1.04 36.6875C1.126 37.3305 1.39 37.9385 1.822 38.4315L8.882 46.4785C9.51 47.1945 10.417 47.6055 11.37 47.6055H54.632C55.585 47.6055 56.491 47.1945 57.12 46.4785L64.18 38.4315C64.612 37.9395 64.876 37.3305 64.962 36.6875H1.04Z" fill="white"/>
<path d="M2.846 39.5985H63.154L64.178 38.4305C64.61 37.9385 64.874 37.3295 64.96 36.6865H1.04C1.126 37.3295 1.39 37.9375 1.822 38.4305L2.846 39.5985Z" fill="#E6E6EF"/>
<path d="M47.335 43.0805V47.6035H18.665V43.0805C18.665 42.4465 19.179 41.9335 19.812 41.9335H46.188C46.821 41.9325 47.335 42.4465 47.335 43.0805Z" fill="#5C9EFE"/>
<path d="M10.28 21.3065C10.28 22.6585 9.19 23.7495 7.837 23.7495C6.491 23.7495 5.394 22.6595 5.394 21.3065C5.394 19.9605 6.491 18.8705 7.837 18.8705C9.19 18.8705 10.28 19.9605 10.28 21.3065Z" fill="#84D189"/>
<path d="M18.952 21.3065C18.952 22.6585 17.862 23.7495 16.509 23.7495C15.163 23.7495 14.066 22.6595 14.066 21.3065C14.066 19.9605 15.163 18.8705 16.509 18.8705C17.862 18.8705 18.952 19.9605 18.952 21.3065Z" fill="#FF564C"/>
<path d="M47.338 33.3135C39.51 31.4485 33.411 26.9055 29.038 19.9065C28.755 19.4535 29.101 18.8545 29.635 18.8735C36.243 19.1105 41.053 14.5055 43.795 10.8855C45.419 8.74152 48.585 8.12252 50.695 9.78952C51.659 10.5515 52.254 11.6205 52.436 12.7555C52.629 13.9465 52.369 15.2075 51.61 16.2605C48.948 19.9525 45.843 26.0565 48.126 32.4165C48.305 32.9205 47.857 33.4375 47.338 33.3135Z" fill="white"/>
<path d="M43.848 10.8155C45.425 8.72052 48.615 8.16052 50.679 9.77752C51.652 10.5405 52.253 11.6145 52.436 12.7555C52.629 13.9465 52.369 15.2075 51.61 16.2605L43.848 10.8155Z" fill="#FF564C"/>
<path d="M56.64 4.43052L51.811 11.0545C51.496 10.5315 51.073 10.0635 50.552 9.68252C50.031 9.30152 49.457 9.04152 48.865 8.89852L53.694 2.27452C54.289 1.46152 55.43 1.28452 56.245 1.88052C56.652 2.17852 56.899 2.61152 56.969 3.07352C57.042 3.53552 56.937 4.02452 56.64 4.43052Z" fill="#FF564C"/>
<path d="M36.373 7.67352C36.671 9.20852 35.664 10.7015 34.117 11.0015C32.582 11.2995 31.089 10.2925 30.791 8.75752C30.491 7.21052 31.498 5.71752 33.033 5.41952C34.58 5.11852 36.072 6.12552 36.373 7.67352Z" fill="#FEBC00"/>
<path d="M61.69 13.9585H53.211C53.246 13.5225 53.247 13.0815 53.176 12.6375C53.091 12.1075 52.909 11.6085 52.681 11.1345L57.246 4.87352C58.092 3.71652 57.828 2.10952 56.689 1.27652C55.533 0.430516 53.927 0.688516 53.088 1.83352L48.492 8.13752C48.062 8.09052 47.624 8.07752 47.177 8.13452C45.602 8.33552 44.152 9.17352 43.198 10.4335C42.314 11.6005 41.236 12.8305 39.979 13.9585H4.311C2.072 13.9585 0.25 15.7795 0.25 18.0185V36.2485C0.25 37.2385 0.608 38.1895 1.257 38.9235L8.316 46.9725C9.087 47.8535 10.2 48.3595 11.371 48.3595H54.631C55.802 48.3595 56.915 47.8545 57.685 46.9735L64.744 38.9255C65.393 38.1895 65.752 37.2385 65.752 36.2485V18.0185C65.75 15.7795 63.929 13.9585 61.69 13.9585ZM54.3 2.71752C54.634 2.25952 55.299 2.11752 55.803 2.48652C56.274 2.83152 56.391 3.50252 56.033 3.98752L51.792 9.80452C51.596 9.59052 51.39 9.38352 51.159 9.20152C50.817 8.93152 50.438 8.72552 50.046 8.55252L54.3 2.71752ZM47.366 9.62152C48.422 9.48852 49.44 9.75452 50.229 10.3785C51.015 10.9995 51.536 11.8865 51.695 12.8765C51.824 13.6725 51.708 14.4685 51.374 15.1815L44.988 10.6995C45.649 10.1175 46.481 9.73452 47.366 9.62152ZM44.001 11.8395L50.566 16.4465C47.791 20.5005 45.196 26.4065 47.412 32.5615C46.373 32.3105 45.366 32.0045 44.386 31.6545C43.643 28.8095 45.254 25.9695 45.272 25.9395C45.479 25.5815 45.358 25.1225 45.001 24.9145C44.642 24.7045 44.186 24.8265 43.977 25.1835C43.903 25.3115 42.385 27.9615 42.739 31.0045C41.308 30.3895 39.944 29.6675 38.652 28.8285C39.587 25.1465 42.523 22.7465 42.554 22.7215C42.876 22.4625 42.929 21.9905 42.67 21.6675C42.413 21.3445 41.942 21.2925 41.617 21.5495C41.481 21.6585 38.527 24.0585 37.344 27.9275C35.76 26.7625 34.295 25.4125 32.944 23.8905C35.928 23.2945 37.975 21.0675 38.074 20.9585C38.351 20.6515 38.327 20.1785 38.02 19.9005C37.713 19.6225 37.241 19.6455 36.961 19.9525C36.938 19.9775 34.726 22.3625 31.8 22.5235C31.08 21.6125 30.394 20.6515 29.749 19.6295C36.229 19.7995 41.02 15.6085 44.001 11.8395ZM4.311 15.4585H38.084C35.741 17.0905 32.923 18.2325 29.661 18.1255C29.144 18.1055 28.646 18.3805 28.381 18.8395C28.116 19.2985 28.124 19.8605 28.402 20.3055C32.816 27.3705 39.087 32.1205 47.164 34.0445C47.673 34.1665 48.201 33.9945 48.547 33.6085C48.9 33.2145 49.009 32.6625 48.831 32.1655C46.699 26.2235 49.496 20.4765 52.218 16.7015C52.497 16.3145 52.699 15.8935 52.866 15.4595H61.691C63.102 15.4595 64.251 16.6075 64.251 18.0195V35.9385H1.75V18.0185C1.75 16.6065 2.898 15.4585 4.311 15.4585ZM19.415 46.8535V43.0805C19.415 42.8615 19.594 42.6835 19.812 42.6835H46.187C46.406 42.6835 46.584 42.8615 46.584 43.0805V46.8535H19.415ZM56.556 45.9845C56.07 46.5395 55.368 46.8585 54.63 46.8585H48.085V43.0805C48.085 42.0345 47.233 41.1835 46.188 41.1835H19.813C18.767 41.1835 17.916 42.0345 17.916 43.0805V46.8585H11.37C10.632 46.8585 9.931 46.5395 9.443 45.9835L2.382 37.9315C2.249 37.7815 2.144 37.6125 2.051 37.4375H63.947C63.854 37.6135 63.748 37.7825 63.615 37.9335L56.556 45.9845Z" fill="#525987"/>
<path d="M7.837 24.4995C9.598 24.4995 11.03 23.0675 11.03 21.3065C11.03 19.5505 9.597 18.1205 7.837 18.1205C6.077 18.1205 4.645 19.5495 4.645 21.3065C4.645 23.0665 6.076 24.4995 7.837 24.4995ZM7.837 19.6205C8.771 19.6205 9.53 20.3765 9.53 21.3065C9.53 22.2405 8.77 22.9995 7.837 22.9995C6.904 22.9995 6.145 22.2405 6.145 21.3065C6.145 20.3775 6.903 19.6205 7.837 19.6205Z" fill="#525987"/>
<path d="M16.51 24.4995C18.271 24.4995 19.702 23.0675 19.702 21.3065C19.702 19.5505 18.27 18.1205 16.51 18.1205C14.75 18.1205 13.317 19.5495 13.317 21.3065C13.316 23.0665 14.749 24.4995 16.51 24.4995ZM16.51 19.6205C17.444 19.6205 18.202 20.3765 18.202 21.3065C18.202 22.2405 17.443 22.9995 16.51 22.9995C15.577 22.9995 14.817 22.2405 14.817 21.3065C14.816 20.3775 15.576 19.6205 16.51 19.6205Z" fill="#525987"/>
<path d="M34.259 11.7375C36.207 11.3585 37.487 9.47152 37.11 7.52952C36.731 5.58152 34.839 4.30552 32.889 4.68152C30.949 5.05852 29.674 6.94252 30.055 8.89852C30.432 10.8415 32.312 12.1145 34.259 11.7375ZM33.175 6.15552C34.301 5.93552 35.415 6.67252 35.637 7.81652C35.856 8.94552 35.11 10.0445 33.974 10.2655C32.841 10.4855 31.745 9.74052 31.528 8.61452C31.306 7.47652 32.044 6.37452 33.175 6.15552Z" fill="#525987"/>
<path d="M54.912 29.6585C55.107 29.6585 55.307 29.6395 55.505 29.6015C57.192 29.2735 58.299 27.6395 57.973 25.9575C57.645 24.2705 56.003 23.1675 54.319 23.4915C52.637 23.8175 51.536 25.4555 51.863 27.1435C52.15 28.6265 53.455 29.6585 54.912 29.6585ZM54.604 24.9635C54.708 24.9435 54.811 24.9335 54.913 24.9335C55.672 24.9335 56.351 25.4705 56.501 26.2425C56.67 27.1125 56.095 27.9585 55.221 28.1285C54.343 28.2985 53.506 27.7265 53.336 26.8575C53.165 25.9825 53.734 25.1325 54.604 24.9635Z" fill="#525987"/>
<path d="M21.439 57.1965C20.509 57.1965 19.753 56.4405 19.753 55.5105V52.8115C19.753 52.3975 19.417 52.0615 19.003 52.0615C18.589 52.0615 18.253 52.3975 18.253 52.8115V55.5105C18.253 57.2665 19.682 58.6965 21.439 58.6965C22.369 58.6965 23.125 59.4525 23.125 60.3825V64.4725C23.125 64.8865 23.461 65.2225 23.875 65.2225C24.289 65.2225 24.625 64.8865 24.625 64.4725V60.3825C24.625 58.6255 23.196 57.1965 21.439 57.1965Z" fill="#525987"/>
<path d="M29.146 57.1965C28.216 57.1965 27.46 56.4405 27.46 55.5105V52.8115C27.46 52.3975 27.124 52.0615 26.71 52.0615C26.296 52.0615 25.96 52.3975 25.96 52.8115V55.5105C25.96 57.2665 27.389 58.6965 29.146 58.6965C30.076 58.6965 30.832 59.4525 30.832 60.3825V64.4725C30.832 64.8865 31.168 65.2225 31.582 65.2225C31.996 65.2225 32.332 64.8865 32.332 64.4725V60.3825C32.332 58.6255 30.903 57.1965 29.146 57.1965Z" fill="#525987"/>
<path d="M36.854 57.1965C35.924 57.1965 35.168 56.4405 35.168 55.5105V52.8115C35.168 52.3975 34.832 52.0615 34.418 52.0615C34.004 52.0615 33.668 52.3975 33.668 52.8115V55.5105C33.668 57.2665 35.097 58.6965 36.854 58.6965C37.784 58.6965 38.54 59.4525 38.54 60.3825V64.4725C38.54 64.8865 38.876 65.2225 39.29 65.2225C39.704 65.2225 40.04 64.8865 40.04 64.4725V60.3825C40.039 58.6255 38.61 57.1965 36.854 57.1965Z" fill="#525987"/>
<path d="M44.561 57.1965C43.631 57.1965 42.875 56.4405 42.875 55.5105V52.8115C42.875 52.3975 42.539 52.0615 42.125 52.0615C41.711 52.0615 41.375 52.3975 41.375 52.8115V55.5105C41.375 57.2665 42.804 58.6965 44.561 58.6965C45.491 58.6965 46.248 59.4525 46.248 60.3825V64.4725C46.248 64.8865 46.584 65.2225 46.998 65.2225C47.412 65.2225 47.748 64.8865 47.748 64.4725V60.3825C47.747 58.6255 46.317 57.1965 44.561 57.1965Z" fill="#525987"/>
<path d="M5.395 31.9045H34.478C34.892 31.9045 35.228 31.5685 35.228 31.1545C35.228 30.7405 34.892 30.4045 34.478 30.4045H5.395C4.981 30.4045 4.645 30.7405 4.645 31.1545C4.645 31.5685 4.98 31.9045 5.395 31.9045Z" fill="#525987"/>
</svg>
