<svg width="70" height="70" viewBox="0 0 70 70" fill="none" xmlns="http://www.w3.org/2000/svg">
<path d="M70 8.39395V33.3742C70 34.5052 69.5507 35.5911 68.7493 36.3926L66.6971 38.4447C65.8972 39.2447 64.8113 39.6941 63.6788 39.6941H63.4549L35 36.9911L6.545 39.6939H6.32105C5.18861 39.6939 4.10279 39.2447 3.30271 38.4446L1.25057 36.3924C0.449258 35.5911 0 34.5052 0 33.3742V8.39395C0 6.82209 1.27463 5.54883 2.84512 5.54883H67.1549C68.7254 5.54883 70 6.82209 70 8.39395Z" fill="white"/>
<path d="M8.53711 8.96352V5.54883H61.4639V8.96352C61.4639 9.59215 60.9544 10.1017 60.3258 10.1017H9.67529C9.04666 10.1017 8.53711 9.59215 8.53711 8.96352Z" fill="#91DAFA"/>
<path d="M20.7715 27.46C20.7715 26.2027 21.7907 25.1836 23.0479 25.1836H46.9503C48.2075 25.1836 49.2266 26.2028 49.2266 27.46C49.2266 28.7172 48.2074 29.7363 46.9503 29.7363H23.0479C21.7907 29.7363 20.7715 28.7171 20.7715 27.46Z" fill="#9FACBA"/>
<path d="M70.0002 8.39395V33.3742C70.0002 34.5052 69.551 35.5911 68.7495 36.3926L66.6974 38.4447C65.8974 39.2447 64.8115 39.6941 63.679 39.6941H63.4551L63.1058 37.4841L64.1973 36.3926C64.9973 35.5911 65.4467 34.5053 65.4467 33.3742V8.39395C65.4467 6.82209 64.1734 5.54883 62.6016 5.54883H67.1551C68.7256 5.54883 70.0002 6.82209 70.0002 8.39395Z" fill="#D3EFFD"/>
<path d="M63.4555 39.6956H6.54492L7.01934 36.6908C7.23768 35.3078 8.42986 34.2891 9.83 34.2891H60.1703C61.5705 34.2891 62.7626 35.3078 62.9809 36.6908L63.4555 39.6956Z" fill="#9FACBA"/>
<path d="M58.6182 29.7363C59.8754 29.7363 60.8945 28.7172 60.8945 27.46C60.8945 26.2028 59.8754 25.1836 58.6182 25.1836C57.361 25.1836 56.3418 26.2028 56.3418 27.46C56.3418 28.7172 57.361 29.7363 58.6182 29.7363Z" fill="#9CD169"/>
<path d="M10.8135 29.7363C12.0707 29.7363 13.0898 28.7172 13.0898 27.46C13.0898 26.2028 12.0707 25.1836 10.8135 25.1836C9.55627 25.1836 8.53711 26.2028 8.53711 27.46C8.53711 28.7172 9.55627 29.7363 10.8135 29.7363Z" fill="#DF646E"/>
<path d="M35.0003 64.4517C44.5866 64.4517 52.3579 56.6804 52.3579 47.094C52.3579 37.5076 44.5866 29.7363 35.0003 29.7363C25.4139 29.7363 17.6426 37.5076 17.6426 47.094C17.6426 56.6804 25.4139 64.4517 35.0003 64.4517Z" fill="#E27F86"/>
<path d="M45.3656 33.1699C47.5229 36.0626 48.8001 39.6503 48.8001 43.5362C48.8001 53.1227 41.0288 60.8939 31.4425 60.8939C27.5565 60.8939 23.9689 59.6167 21.0762 57.4594C24.2407 61.7027 29.299 64.4508 34.9995 64.4508C44.5859 64.4508 52.3571 56.6794 52.3571 47.0931C52.357 41.3927 49.6091 36.3343 45.3656 33.1699Z" fill="#DF646E"/>
<path d="M47.8051 47.8438V46.3438C47.8051 45.8268 47.4531 45.3761 46.9515 45.2508L44.5338 44.6463C44.1726 44.556 43.8872 44.2868 43.7613 43.9363C43.6617 43.6591 43.5493 43.3878 43.4249 43.1234C43.2642 42.7824 43.2928 42.3821 43.4868 42.0591L44.7545 39.9462C45.0205 39.5028 44.9506 38.9353 44.5851 38.5697L43.5244 37.5091C43.1588 37.1435 42.5913 37.0736 42.1479 37.3397L40.0351 38.6073C39.7119 38.8012 39.3115 38.8298 38.9706 38.6693C38.7062 38.5447 38.435 38.4325 38.1576 38.3328C37.8072 38.2069 37.538 37.9215 37.4477 37.5603L36.8432 35.1426C36.7179 34.641 36.2671 34.2891 35.7502 34.2891H34.2502C33.7331 34.2891 33.2825 34.641 33.1571 35.1426L32.5527 37.5603C32.4623 37.9215 32.1931 38.2069 31.8427 38.3328C31.5655 38.4325 31.2942 38.5448 31.0298 38.6693C30.6888 38.8299 30.2885 38.8013 29.9653 38.6073L27.8525 37.3397C27.4091 37.0736 26.8416 37.1435 26.476 37.5091L25.4153 38.5697C25.0497 38.9353 24.9799 39.5028 25.2459 39.9462L26.5136 42.0591C26.7074 42.3823 26.736 42.7824 26.5755 43.1234C26.451 43.3878 26.3387 43.6589 26.239 43.9363C26.1131 44.2868 25.8278 44.5561 25.4666 44.6463L23.0488 45.2508C22.5472 45.3761 22.1953 45.8269 22.1953 46.3438V47.8438C22.1953 48.3608 22.5472 48.8115 23.0488 48.9368L25.4666 49.5413C25.8278 49.6316 26.1131 49.9008 26.239 50.2512C26.3387 50.5285 26.4511 50.7998 26.5755 51.0642C26.7362 51.4052 26.7076 51.8055 26.5136 52.1285L25.2459 54.2414C24.9799 54.6848 25.0497 55.2523 25.4153 55.6179L26.4758 56.6785C26.8414 57.0441 27.4089 57.114 27.8523 56.8479L29.9652 55.5803C30.2884 55.3864 30.6886 55.3578 31.0297 55.5183C31.2941 55.6429 31.5652 55.7551 31.8426 55.8548C32.193 55.9807 32.4623 56.2661 32.5526 56.6273L33.157 59.045C33.2824 59.5466 33.7331 59.8985 34.2501 59.8985H35.75C36.2671 59.8985 36.7177 59.5466 36.8431 59.045L37.4475 56.6273C37.5379 56.2661 37.8071 55.9807 38.1575 55.8548C38.4348 55.7551 38.706 55.6428 38.9704 55.5183C39.3114 55.3577 39.7117 55.3863 40.0349 55.5803L42.1478 56.8479C42.5912 57.114 43.1587 57.0441 43.5243 56.6785L44.5849 55.6179C44.9505 55.2523 45.0204 54.6848 44.7543 54.2414L43.4867 52.1285C43.2928 51.8053 43.2642 51.4052 43.4247 51.0642C43.5493 50.7998 43.6615 50.5287 43.7612 50.2512C43.8871 49.9008 44.1724 49.6315 44.5337 49.5413L46.9514 48.9368C47.4531 48.8115 47.8051 48.3607 47.8051 47.8438ZM35.0001 51.7501C32.4286 51.7501 30.3438 49.6654 30.3438 47.0937C30.3438 44.522 32.4284 42.4374 35.0001 42.4374C37.5718 42.4374 39.6565 44.522 39.6565 47.0937C39.6565 49.6654 37.5717 51.7501 35.0001 51.7501Z" fill="white"/>
<path d="M43.7604 50.2511C43.8863 49.9006 44.1717 49.6313 44.5329 49.5411L46.9506 48.9366C47.4522 48.8113 47.804 48.3605 47.804 47.8436V46.3436C47.804 45.8266 47.4521 45.3759 46.9506 45.2506L44.5329 44.6461C44.3117 44.5908 44.1193 44.4679 43.9742 44.3008C43.9565 44.3645 43.9406 44.4188 43.9287 44.4549C42.2519 49.9847 37.8903 54.3463 32.3604 56.0232C32.309 56.0381 32.2569 56.0528 32.2051 56.0676C32.3728 56.2128 32.4963 56.4056 32.5517 56.6275L33.1561 59.0452C33.2815 59.5468 33.7322 59.8987 34.2492 59.8987H35.7491C36.2662 59.8987 36.7168 59.5468 36.8422 59.0452L37.4466 56.6275C37.537 56.2663 37.8062 55.9809 38.1566 55.855C38.4338 55.7553 38.7051 55.643 38.9695 55.5186C39.3105 55.3579 39.7108 55.3865 40.034 55.5805L42.1469 56.8481C42.5902 57.1142 43.1578 57.0443 43.5233 56.6787L44.584 55.6181C44.9496 55.2525 45.0195 54.685 44.7534 54.2416L43.4857 52.1287C43.2919 51.8055 43.2633 51.4054 43.4238 51.0644C43.5485 50.7996 43.6607 50.5283 43.7604 50.2511Z" fill="white"/>
<path d="M19.9192 20.2324H8.53711C7.97068 20.2324 7.51172 19.7735 7.51172 19.207C7.51172 18.6406 7.97068 18.1816 8.53711 18.1816H19.9192C20.4856 18.1816 20.9446 18.6406 20.9446 19.207C20.9446 19.7735 20.4856 20.2324 19.9192 20.2324Z" fill="#B2E5FB"/>
<path d="M19.9192 15.6797H8.53711C7.97068 15.6797 7.51172 15.2207 7.51172 14.6543C7.51172 14.0879 7.97068 13.6289 8.53711 13.6289H19.9192C20.4856 13.6289 20.9446 14.0879 20.9446 14.6543C20.9446 15.2207 20.4856 15.6797 19.9192 15.6797Z" fill="#B2E5FB"/>
<path d="M61.4641 20.2324H50.082C49.5156 20.2324 49.0566 19.7735 49.0566 19.207C49.0566 18.6406 49.5156 18.1816 50.082 18.1816H61.4641C62.0306 18.1816 62.4895 18.6406 62.4895 19.207C62.4895 19.7735 62.0304 20.2324 61.4641 20.2324Z" fill="#B2E5FB"/>
<path d="M61.4641 15.6797H50.082C49.5156 15.6797 49.0566 15.2207 49.0566 14.6543C49.0566 14.0879 49.5156 13.6289 50.082 13.6289H61.4641C62.0306 13.6289 62.4895 14.0879 62.4895 14.6543C62.4895 15.2207 62.0304 15.6797 61.4641 15.6797Z" fill="#B2E5FB"/>
</svg>
