<svg width="70" height="70" viewBox="0 0 70 70" fill="none" xmlns="http://www.w3.org/2000/svg">
<path d="M38.2812 52.5H28.9682C27.2278 52.5 25.5586 53.1914 24.3279 54.4221L21.875 56.875L27.3438 62.3438L29.9843 59.7032C30.3946 59.2929 30.9509 59.0625 31.5312 59.0625H38.2812C40.0935 59.0625 41.5625 57.5935 41.5625 55.7812C41.5625 53.969 40.0935 52.5 38.2812 52.5Z" fill="#FAB991"/>
<path d="M54.0468 50.9533C53.1926 50.0989 51.8075 50.0989 50.9533 50.9533L42.844 59.0626H31.5312C30.9511 59.0626 30.3946 59.2931 29.9843 59.7033L27.3438 62.3439L30.625 65.6251L32.8125 63.4376H43.2971C44.1736 63.4376 44.9976 63.0962 45.6172 62.4765L54.0468 54.0468C54.9011 53.1927 54.9011 51.8076 54.0468 50.9533Z" fill="#F0915A"/>
<path d="M38.2819 57.6049H37.5527C36.9487 57.6049 36.459 57.1151 36.459 56.5111V55.0527C36.459 54.4487 36.9487 53.959 37.5527 53.959H38.2819C39.2887 53.959 40.1047 54.7752 40.1047 55.7819C40.1047 56.7888 39.2887 57.6049 38.2819 57.6049Z" fill="#F0915A"/>
<path d="M21.5547 56.5547L27.3438 62.3438L21.875 67.8125H8.75L20.0078 56.5547C20.4349 56.1276 21.1276 56.1276 21.5547 56.5547Z" fill="#FAA019"/>
<path d="M27.3438 62.3438L30.9453 65.9453C31.3724 66.3724 31.3724 67.0651 30.9453 67.4922L30.625 67.8125H21.875L27.3438 62.3438Z" fill="#F06423"/>
<path d="M35 39.375C38.6244 39.375 41.5625 36.4369 41.5625 32.8125C41.5625 29.1881 38.6244 26.25 35 26.25C31.3756 26.25 28.4375 29.1881 28.4375 32.8125C28.4375 36.4369 31.3756 39.375 35 39.375Z" fill="#23AAE6"/>
<path d="M35.0002 43.7504C33.7468 43.7504 32.5197 43.5407 31.3534 43.1269C30.7841 42.9249 30.4863 42.2997 30.6882 41.7304C30.8902 41.1611 31.5155 40.8632 32.0847 41.0653C33.0157 41.3955 33.9965 41.5629 35.0003 41.5629C36.0041 41.5629 36.9849 41.3955 37.916 41.0653C38.4854 40.8631 39.1106 41.1611 39.3124 41.7304C39.5144 42.2997 39.2166 42.9249 38.6473 43.1269C37.4807 43.5407 36.2536 43.7504 35.0002 43.7504Z" fill="#5AD7FF"/>
<path d="M35.0002 48.1255C33.7468 48.1255 32.5197 47.9158 31.3534 47.5019C30.7841 47.3 30.4863 46.6748 30.6882 46.1055C30.8902 45.5361 31.5155 45.238 32.0847 45.4404C33.0157 45.7705 33.9965 45.938 35.0003 45.938C36.0041 45.938 36.9849 45.7705 37.916 45.4404C38.4854 45.2382 39.1106 45.5362 39.3124 46.1055C39.5144 46.6748 39.2166 47.3 38.6473 47.5019C37.4807 47.9158 36.2536 48.1255 35.0002 48.1255Z" fill="#5AD7FF"/>
<path d="M28.4375 32.8125C28.4375 34.6247 29.9065 36.0938 31.7188 36.0938C33.531 36.0938 35 34.6247 35 32.8125V26.25C31.3756 26.25 28.4375 29.1881 28.4375 32.8125Z" fill="#5AD7FF"/>
<path d="M35.0002 43.7504C33.7468 43.7504 32.5197 43.5407 31.3534 43.1269C30.7841 42.9249 30.4863 42.2997 30.6882 41.7304C30.8902 41.1611 31.5155 40.8632 32.0847 41.0653C33.0157 41.3955 33.9965 41.5629 35.0003 41.5629C36.0041 41.5629 36.9849 41.3955 37.916 41.0653C38.4854 40.8631 39.1106 41.1611 39.3124 41.7304C39.5144 42.2997 39.2166 42.9249 38.6473 43.1269C37.4807 43.5407 36.2536 43.7504 35.0002 43.7504Z" fill="#5AD7FF"/>
<path d="M35.0002 48.1255C33.7468 48.1255 32.5197 47.9158 31.3534 47.5019C30.7841 47.3 30.4863 46.6748 30.6882 46.1055C30.8902 45.5361 31.5155 45.238 32.0847 45.4404C33.0157 45.7705 33.9965 45.938 35.0003 45.938C36.0041 45.938 36.9849 45.7705 37.916 45.4404C38.4854 45.2382 39.1106 45.5362 39.3124 46.1055C39.5144 46.6748 39.2166 47.3 38.6473 47.5019C37.4807 47.9158 36.2536 48.1255 35.0002 48.1255Z" fill="#5AD7FF"/>
<path d="M50.3125 21.875C53.9369 21.875 56.875 18.9369 56.875 15.3125C56.875 11.6881 53.9369 8.75 50.3125 8.75C46.6881 8.75 43.75 11.6881 43.75 15.3125C43.75 18.9369 46.6881 21.875 50.3125 21.875Z" fill="#23AAE6"/>
<path d="M50.3127 26.2504C49.0593 26.2504 47.8322 26.0407 46.6659 25.6268C46.0966 25.4249 45.7988 24.7997 46.0007 24.2304C46.2027 23.6611 46.8277 23.3632 47.3972 23.5652C48.3282 23.8954 49.309 24.0629 50.3128 24.0629C51.3166 24.0629 52.2974 23.8954 53.2285 23.5652C53.7979 23.3632 54.423 23.6611 54.6249 24.2304C54.8269 24.7997 54.5291 25.4249 53.9598 25.6268C52.7932 26.0407 51.5661 26.2504 50.3127 26.2504Z" fill="#5AD7FF"/>
<path d="M50.3127 30.6255C49.0593 30.6255 47.8322 30.4158 46.6659 30.0019C46.0966 29.8 45.7988 29.1748 46.0007 28.6055C46.2027 28.0361 46.8277 27.738 47.3972 27.9404C48.3282 28.2705 49.309 28.438 50.3128 28.438C51.3166 28.438 52.2974 28.2705 53.2285 27.9404C53.7979 27.7382 54.423 28.0362 54.6249 28.6055C54.8269 29.1748 54.5291 29.8 53.9598 30.0019C52.7932 30.4158 51.5661 30.6255 50.3127 30.6255Z" fill="#5AD7FF"/>
<path d="M43.75 15.3125C43.75 17.1247 45.219 18.5938 47.0312 18.5938C48.8435 18.5938 50.3125 17.1247 50.3125 15.3125V8.75C46.6881 8.75 43.75 11.6881 43.75 15.3125Z" fill="#5AD7FF"/>
<path d="M50.3127 26.2504C49.0593 26.2504 47.8322 26.0407 46.6659 25.6268C46.0966 25.4249 45.7988 24.7997 46.0007 24.2304C46.2027 23.6611 46.8277 23.3632 47.3972 23.5652C48.3282 23.8954 49.309 24.0629 50.3128 24.0629C51.3166 24.0629 52.2974 23.8954 53.2285 23.5652C53.7979 23.3632 54.423 23.6611 54.6249 24.2304C54.8269 24.7997 54.5291 25.4249 53.9598 25.6268C52.7932 26.0407 51.5661 26.2504 50.3127 26.2504Z" fill="#5AD7FF"/>
<path d="M50.3127 30.6255C49.0593 30.6255 47.8322 30.4158 46.6659 30.0019C46.0966 29.8 45.7988 29.1748 46.0007 28.6055C46.2027 28.0361 46.8277 27.738 47.3972 27.9404C48.3282 28.2705 49.309 28.438 50.3128 28.438C51.3166 28.438 52.2974 28.2705 53.2285 27.9404C53.7979 27.7382 54.423 28.0362 54.6249 28.6055C54.8269 29.1748 54.5291 29.8 53.9598 30.0019C52.7932 30.4158 51.5661 30.6255 50.3127 30.6255Z" fill="#5AD7FF"/>
<path d="M24.0625 15.3125C27.6869 15.3125 30.625 12.3744 30.625 8.75C30.625 5.12563 27.6869 2.1875 24.0625 2.1875C20.4381 2.1875 17.5 5.12563 17.5 8.75C17.5 12.3744 20.4381 15.3125 24.0625 15.3125Z" fill="#23AAE6"/>
<path d="M24.0627 19.6879C22.8093 19.6879 21.5822 19.4782 20.4159 19.0644C19.8466 18.8624 19.5488 18.2372 19.7507 17.6679C19.9527 17.0985 20.5779 16.8007 21.1472 17.0028C22.0782 17.333 23.059 17.5004 24.0628 17.5004C25.0666 17.5004 26.0474 17.333 26.9785 17.0028C27.5478 16.8006 28.1731 17.0986 28.3749 17.6679C28.5769 18.2372 28.2791 18.8624 27.7098 19.0644C26.5432 19.4782 25.3161 19.6879 24.0627 19.6879Z" fill="#5AD7FF"/>
<path d="M24.0627 24.063C22.8093 24.063 21.5822 23.8533 20.4159 23.4394C19.8466 23.2375 19.5488 22.6123 19.7507 22.043C19.9527 21.4736 20.5779 21.1755 21.1472 21.3779C22.0782 21.708 23.059 21.8755 24.0628 21.8755C25.0666 21.8755 26.0474 21.708 26.9785 21.3779C27.5478 21.1757 28.1731 21.4737 28.3749 22.043C28.5769 22.6123 28.2791 23.2375 27.7098 23.4394C26.5432 23.8533 25.3161 24.063 24.0627 24.063Z" fill="#5AD7FF"/>
<path d="M17.5 8.75C17.5 10.5622 18.969 12.0312 20.7812 12.0312C22.5935 12.0312 24.0625 10.5622 24.0625 8.75V2.1875C20.4381 2.1875 17.5 5.12559 17.5 8.75Z" fill="#5AD7FF"/>
<path d="M24.0627 19.6879C22.8093 19.6879 21.5822 19.4782 20.4159 19.0644C19.8466 18.8624 19.5488 18.2372 19.7507 17.6679C19.9527 17.0985 20.5779 16.8007 21.1472 17.0028C22.0782 17.333 23.059 17.5004 24.0628 17.5004C25.0666 17.5004 26.0474 17.333 26.9785 17.0028C27.5478 16.8006 28.1731 17.0986 28.3749 17.6679C28.5769 18.2372 28.2791 18.8624 27.7098 19.0644C26.5432 19.4782 25.3161 19.6879 24.0627 19.6879Z" fill="#5AD7FF"/>
<path d="M24.0627 24.063C22.8093 24.063 21.5822 23.8533 20.4159 23.4394C19.8466 23.2375 19.5488 22.6123 19.7507 22.043C19.9527 21.4736 20.5779 21.1755 21.1472 21.3779C22.0782 21.708 23.059 21.8755 24.0628 21.8755C25.0666 21.8755 26.0474 21.708 26.9785 21.3779C27.5478 21.1757 28.1731 21.4737 28.3749 22.043C28.5769 22.6123 28.2791 23.2375 27.7098 23.4394C26.5432 23.8533 25.3161 24.063 24.0627 24.063Z" fill="#5AD7FF"/>
</svg>
