<svg width="70" height="58" viewBox="0 0 70 58" fill="none" xmlns="http://www.w3.org/2000/svg">
<path d="M33.9155 45.3397C34.4641 44.6272 35.5361 44.6272 36.0846 45.3397C37.4313 47.0895 39.5529 50.2161 39.5529 52.5471C39.5529 55.0617 37.5145 57.1 35 57.1C32.4855 57.1 30.4471 55.0617 30.4471 52.5471C30.4471 50.2161 32.5689 47.0895 33.9155 45.3397Z" fill="#91DAFA"/>
<path d="M46.0966 41.1308C46.6404 40.3848 47.757 40.3848 48.3007 41.1308C49.2149 42.3852 50.3658 44.2489 50.3658 45.6807C50.3658 47.4299 48.9478 48.8479 47.1986 48.8479C45.4494 48.8479 44.0314 47.4299 44.0314 45.6807C44.0315 44.2489 45.1824 42.3854 46.0966 41.1308Z" fill="#75CFF9"/>
<path d="M23.9034 41.1308C23.3596 40.3848 22.243 40.3848 21.6993 41.1308C20.7851 42.3852 19.6342 44.2489 19.6342 45.6807C19.6342 47.4299 21.0522 48.8479 22.8014 48.8479C24.5506 48.8479 25.9686 47.4299 25.9686 45.6807C25.9685 44.2489 24.8176 42.3854 23.9034 41.1308Z" fill="#B2E5FB"/>
<path d="M70 3.74688V28.7258C70 29.8582 69.5507 30.9441 68.7493 31.7441L66.6972 33.7977C65.8972 34.5976 64.8112 35.047 63.6788 35.047H63.4549L35 32.3441L6.545 35.0469H6.32105C5.18861 35.0469 4.10279 34.5976 3.30271 33.7975L1.25057 31.744C0.449258 30.9441 0 29.8581 0 28.7258V3.74688C0 2.17502 1.27463 0.900391 2.84512 0.900391H67.1549C68.7254 0.900391 70 2.17502 70 3.74688Z" fill="white"/>
<path d="M8.53658 4.31549V0.900801H61.4634V4.31549C61.4634 4.94412 60.9539 5.45367 60.3252 5.45367H9.67477C9.04613 5.45367 8.53658 4.94412 8.53658 4.31549Z" fill="#91DAFA"/>
<path d="M20.7724 22.8113C20.7724 21.5541 21.7916 20.535 23.0487 20.535H46.9511C48.2084 20.535 49.2275 21.5542 49.2275 22.8113C49.2275 24.0686 48.2083 25.0877 46.9511 25.0877H23.0487C21.7916 25.0879 20.7724 24.0686 20.7724 22.8113Z" fill="#9FACBA"/>
<path d="M70 3.74688V28.7258C70 29.8582 69.5507 30.9441 68.7493 31.7441L66.6972 33.7977C65.8972 34.5976 64.8112 35.047 63.6788 35.047H63.4549L63.1055 32.8357L64.1971 31.7441C64.997 30.9442 65.4464 29.8582 65.4464 28.7258V3.74688C65.4464 2.17502 64.1732 0.900391 62.6013 0.900391L67.1549 0.900391C68.7254 0.900391 70 2.17502 70 3.74688Z" fill="#D3EFFD"/>
<path d="M63.4549 35.047L6.545 35.0469L7.01914 32.0423C7.23748 30.6593 8.42967 29.6406 9.82981 29.6406H60.1701C61.5703 29.6406 62.7624 30.6593 62.9807 32.0423L63.4549 35.047Z" fill="#9FACBA"/>
<path d="M58.6179 25.0877C59.8751 25.0877 60.8943 24.0686 60.8943 22.8113C60.8943 21.5541 59.8751 20.535 58.6179 20.535C57.3607 20.535 56.3415 21.5541 56.3415 22.8113C56.3415 24.0686 57.3607 25.0877 58.6179 25.0877Z" fill="#9CD169"/>
<path d="M10.8129 25.0877C12.0702 25.0877 13.0893 24.0686 13.0893 22.8113C13.0893 21.5541 12.0702 20.535 10.8129 20.535C9.55575 20.535 8.53658 21.5541 8.53658 22.8113C8.53658 24.0686 9.55575 25.0877 10.8129 25.0877Z" fill="#DF646E"/>
<path d="M19.9187 15.5847H8.53658C7.97029 15.5847 7.51119 15.1256 7.51119 14.5593C7.51119 13.993 7.97029 13.5339 8.53658 13.5339H19.9187C20.485 13.5339 20.9441 13.993 20.9441 14.5593C20.9441 15.1256 20.485 15.5847 19.9187 15.5847Z" fill="#B2E5FB"/>
<path d="M19.9187 11.0319H8.53658C7.97029 11.0319 7.51119 10.5728 7.51119 10.0065C7.51119 9.44025 7.97029 8.98115 8.53658 8.98115H19.9187C20.485 8.98115 20.9441 9.44025 20.9441 10.0065C20.9441 10.5728 20.485 11.0319 19.9187 11.0319Z" fill="#B2E5FB"/>
<path d="M61.4634 15.5847H50.0813C49.515 15.5847 49.0559 15.1256 49.0559 14.5593C49.0559 13.993 49.515 13.5339 50.0813 13.5339H61.4634C62.0297 13.5339 62.4888 13.993 62.4888 14.5593C62.4888 15.1256 62.0297 15.5847 61.4634 15.5847Z" fill="#B2E5FB"/>
<path d="M61.4634 11.0319H50.0813C49.515 11.0319 49.0559 10.5728 49.0559 10.0065C49.0559 9.44025 49.515 8.98115 50.0813 8.98115H61.4634C62.0297 8.98115 62.4888 9.44025 62.4888 10.0065C62.4888 10.5728 62.0297 11.0319 61.4634 11.0319Z" fill="#B2E5FB"/>
</svg>
