<svg xmlns="http://www.w3.org/2000/svg" width="71" height="70" viewBox="0 0 71 70" fill="none">
  <g clip-path="url(#clip0_5569_2622)">
    <path d="M40.3346 30.3334H3.00135C1.71264 30.3334 0.667969 29.2887 0.667969 28V2.33338C0.667969 1.04467 1.71264 0 3.00135 0H66.0014C67.2901 0 68.3347 1.04467 68.3347 2.33338V14L40.3346 30.3334Z" fill="#99E6FC"/>
    <path d="M66.0011 0H62.7617C64.0504 0 65.0951 1.04467 65.0951 2.33338V15.8897L68.3345 14.0001V2.33338C68.3344 1.04467 67.2897 0 66.0011 0Z" fill="#01D0FB"/>
    <path d="M42.6676 15.0564C42.0842 15.0564 41.6113 14.5835 41.6113 14.0002V4.66664C41.6113 4.08326 42.0842 3.61035 42.6676 3.61035C43.251 3.61035 43.7239 4.08326 43.7239 4.66664V14C43.724 14.5834 43.251 15.0564 42.6676 15.0564Z" fill="#01D0FB"/>
    <path d="M47.3336 15.0567C46.7503 15.0567 46.2773 14.5838 46.2773 14.0004V9.33363C46.2773 8.75025 46.7503 8.27734 47.3336 8.27734C47.917 8.27734 48.3899 8.75025 48.3899 9.33363V14.0003C48.3901 14.5836 47.9172 15.0567 47.3336 15.0567Z" fill="#01D0FB"/>
    <path d="M31.0022 25.667V39.667C31.0022 40.9557 29.9576 42.0004 28.6688 42.0004C27.3801 42.0004 26.3355 40.9557 26.3355 39.667V37.3336C26.3355 36.0449 25.2908 35.0002 24.0021 35.0002C22.7134 35.0002 21.6687 36.0449 21.6687 37.3336V45.5004C21.6687 46.7891 20.624 47.8337 19.3353 47.8337C18.0466 47.8337 17.002 46.7891 17.002 45.5004V25.667H31.0022Z" fill="#99E6FC"/>
    <path d="M20.7619 35C19.4732 35 18.4285 36.0447 18.4285 37.3334V45.5C18.4285 46.159 18.1543 46.753 17.7148 47.1774C18.1346 47.5828 18.705 47.8334 19.3346 47.8334C20.6233 47.8334 21.6679 46.7887 21.6679 45.5V37.3334C21.6679 36.6744 21.9422 36.0804 22.3816 35.656C21.9617 35.2506 21.3915 35 20.7619 35Z" fill="#01D0FB"/>
    <path d="M29.3822 25.667C28.4877 25.667 27.7625 26.3921 27.7625 27.2867V39.667C27.7625 40.326 27.4882 40.92 27.0488 41.3444C27.4773 41.7582 28.0627 42.0108 28.708 42C29.991 41.9786 31.0018 40.8908 31.0018 39.6075V27.2867C31.0019 26.3921 30.2766 25.667 29.3822 25.667Z" fill="#01D0FB"/>
    <path d="M61.3347 64.1666C61.3347 67.3883 58.7231 70 55.5014 70C52.2797 70 49.668 67.3883 49.668 64.1666V44.4883H61.3346V64.1666H61.3347Z" fill="#BC7C63"/>
    <path d="M58.0944 44.4883V64.1666C58.0944 66.8259 56.314 69.0681 53.8809 69.7703C54.3953 69.9188 54.9382 70 55.5006 70C58.7222 70 61.3339 67.3883 61.3339 64.1666V44.4883H58.0944Z" fill="#AA6A51"/>
    <path d="M62.5736 46.6663H48.4277C47.8237 46.6663 47.334 46.1766 47.334 45.5726V41.0146H63.6674V45.5726C63.6674 46.1766 63.1776 46.6663 62.5736 46.6663Z" fill="#FEE45A"/>
    <path d="M60.4275 41.0146V45.5396C60.4275 46.162 59.923 46.6663 59.3008 46.6663H62.5402C63.1625 46.6663 63.6669 46.1618 63.6669 45.5396V41.0146H60.4275Z" fill="#FED402"/>
    <path d="M65.125 42H45.875C43.4588 42 41.5 40.0412 41.5 37.625V31.3896H69.5V37.625C69.5 40.0412 67.5412 42 65.125 42Z" fill="#BC7C63"/>
    <path d="M66.261 31.3896V37.4929C66.261 39.9821 64.2431 42 61.7539 42H64.9933C67.4826 42 69.5004 39.9821 69.5004 37.4929V31.3896H66.261Z" fill="#AA6A51"/>
    <path d="M56.0842 64.0559H54.9176C54.3342 64.0559 53.8613 63.583 53.8613 62.9996C53.8613 62.4163 54.3342 61.9434 54.9176 61.9434H56.0844C56.6678 61.9434 57.1407 62.4163 57.1407 62.9996C57.1407 63.5829 56.6678 64.0559 56.0842 64.0559Z" fill="#E2DEE2"/>
    <path d="M41.5014 28L40.5453 16.5271C40.432 15.1668 41.5055 14 42.8706 14H57.8348C58.3286 14 58.7531 14.3221 58.9196 14.787C59.2426 15.6885 60.1044 16.3334 61.117 16.3334C62.1295 16.3334 62.9914 15.6885 63.3143 14.787C63.4809 14.3221 63.9054 14 64.3992 14H68.1323C69.4974 14 70.5709 15.1668 70.4576 16.5271L69.5015 28V28.9514H41.5015V28H41.5014Z" fill="#FFF7F3"/>
    <path d="M46.1676 29.0559C45.5842 29.0559 45.1113 28.583 45.1113 27.9996V20.9996C45.1113 20.4163 45.5842 19.9434 46.1676 19.9434C46.751 19.9434 47.2239 20.4163 47.2239 20.9996V27.9996C47.2239 28.5829 46.751 29.0559 46.1676 29.0559Z" fill="#FFE2DB"/>
    <path d="M50.8336 29.0559C50.2503 29.0559 49.7773 28.583 49.7773 27.9996V20.9996C49.7773 20.4163 50.2503 19.9434 50.8336 19.9434C51.417 19.9434 51.8899 20.4163 51.8899 20.9996V27.9996C51.8899 28.5829 51.417 29.0559 50.8336 29.0559Z" fill="#FFE2DB"/>
    <path d="M55.5016 29.0559C54.9182 29.0559 54.4453 28.583 54.4453 27.9996V20.9996C54.4453 20.4163 54.9182 19.9434 55.5016 19.9434C56.085 19.9434 56.5579 20.4163 56.5579 20.9996V27.9996C56.5579 28.5829 56.085 29.0559 55.5016 29.0559Z" fill="#FFE2DB"/>
    <path d="M60.1676 29.0559C59.5842 29.0559 59.1113 28.583 59.1113 27.9996V20.9996C59.1113 20.4163 59.5842 19.9434 60.1676 19.9434C60.751 19.9434 61.2239 20.4163 61.2239 20.9996V27.9996C61.224 28.5829 60.751 29.0559 60.1676 29.0559Z" fill="#FFE2DB"/>
    <path d="M64.8336 29.0559C64.2503 29.0559 63.7773 28.583 63.7773 27.9996V20.9996C63.7773 20.4163 64.2503 19.9434 64.8336 19.9434C65.417 19.9434 65.8899 20.4163 65.8899 20.9996V27.9996C65.8901 28.5829 65.4172 29.0559 64.8336 29.0559Z" fill="#FFE2DB"/>
    <path d="M68.132 13.9688H64.8926C66.2577 13.9688 67.3312 15.1355 67.2179 16.4959L66.2618 27.9688V28.9202H69.5012V27.9688L70.4573 16.4959C70.5706 15.1355 69.497 13.9688 68.132 13.9688Z" fill="#FFEEE7"/>
    <path d="M69.5736 32.6668H41.4277C40.8237 32.6668 40.334 32.177 40.334 31.573V29.0938C40.334 28.4897 40.8237 28 41.4277 28H69.5736C70.1776 28 70.6674 28.4897 70.6674 29.0938V31.5729C70.6674 32.177 70.1776 32.6668 69.5736 32.6668Z" fill="#E2DEE2"/>
    <path d="M69.5409 28H66.293C66.9153 28 67.4197 28.5045 67.4197 29.1268V31.5399C67.4197 32.1623 66.9152 32.6666 66.293 32.6666H69.5409C70.1632 32.6666 70.6676 32.1621 70.6676 31.5399V29.1268C70.6676 28.5045 70.1631 28 69.5409 28Z" fill="#CBC4CC"/>
  </g>
  <defs>
    <clipPath id="clip0_5569_2622">
      <rect width="70" height="70" fill="white" transform="translate(0.667969)"/>
    </clipPath>
  </defs>
</svg>
