<svg xmlns="http://www.w3.org/2000/svg" width="70" height="70" viewBox="0 0 70 70" fill="none">
  <g clip-path="url(#clip0_5569_2693)">
    <path d="M59.8302 18.6178L52.4922 14.4365V2.96582H59.8302V18.6178Z" fill="#757575"/>
    <path d="M57.0137 2.96582V16.5987L61.2371 18.6179V2.96582H57.0137Z" fill="#616161"/>
    <path d="M59.8304 64.204L57.0149 65.6122L34.2971 68.4286L8.76367 65.6122V19.6985L35.001 2.2041L59.8304 18.2902V64.204Z" fill="#DFF6FD"/>
    <path d="M35.0004 2.2041L29.7207 5.72447L56.0739 23.2961C56.6614 23.6878 57.0144 24.3475 57.0144 25.0538V65.6122L59.126 67.0204L61.2377 65.6122V19.6985L35.0004 2.2041Z" fill="#D5E3F4"/>
    <path d="M66.5745 25.9091L35.5466 5.21712C35.2156 4.99632 34.7844 4.99632 34.4534 5.21712L3.47716 25.8746C2.49005 26.5329 1.13503 26.3404 0.431339 25.385C-0.31993 24.365 -0.0604381 22.9364 0.981222 22.2416L33.7779 0.370166C34.5179 -0.123389 35.4821 -0.123389 36.2221 0.370166L69.0188 22.2416C70.0312 22.9167 70.3047 24.285 69.6298 25.2978C69.2052 25.9348 68.0124 26.8199 66.5745 25.9091Z" fill="#5C9EFE"/>
    <path d="M37.1871 49.1577C36.6038 49.1577 36.1312 48.6849 36.1312 48.1016V43.1019C36.1312 42.639 35.8347 42.2341 35.3932 42.0947C35.387 42.0928 35.3807 42.0907 35.3745 42.0887L18.6565 36.4624C17.3382 36.0411 16.4531 34.8295 16.4531 33.4442V28.3424C16.4531 26.5953 17.874 25.1738 19.6206 25.1738H21.8818C22.4649 25.1738 22.9377 25.6466 22.9377 26.23C22.9377 26.8134 22.4649 27.2861 21.8818 27.2861H19.6206C19.0383 27.2861 18.5647 27.7599 18.5647 28.3423V33.4441C18.5647 33.9071 18.8613 34.3118 19.3026 34.4513C19.3089 34.4532 19.3151 34.4553 19.3213 34.4573L36.0393 40.0836C37.3576 40.5049 38.2427 41.7165 38.2427 43.1018V48.1014C38.243 48.6848 37.7703 49.1577 37.1871 49.1577Z" fill="#BEC6ED"/>
    <path d="M35.4262 65.1006C34.5123 64.5183 33.9062 63.4958 33.9062 62.3317V49.0873C33.9062 48.5429 34.3474 48.1016 34.8917 48.1016H36.9462L39.0578 49.5098V62.3317C39.0578 64.1435 35.9346 65.4246 35.4262 65.1006Z" fill="#FFF08A"/>
    <path d="M36.9457 48.1006V62.3308C36.9457 63.495 36.3395 64.5175 35.4258 65.0998C35.9513 65.4347 36.5787 65.6241 37.2511 65.611C39.0505 65.5758 40.4651 64.0486 40.4651 62.2482V49.0865C40.4651 48.5421 40.0239 48.1007 39.4796 48.1007L36.9457 48.1006Z" fill="#FFC472"/>
    <path d="M45.9257 48.1007C47.1294 48.1007 48.1052 47.1246 48.1052 45.9205C48.1052 44.7164 47.1294 43.7402 45.9257 43.7402C44.7219 43.7402 43.7461 44.7164 43.7461 45.9205C43.7461 47.1246 44.7219 48.1007 45.9257 48.1007Z" fill="#8CE0FF"/>
    <path d="M26.2535 65.6118L19.6941 67.02L13.1348 65.6118V44.726C13.1348 44.1816 13.576 43.7402 14.1202 43.7402H25.268C25.8123 43.7402 26.2535 44.1816 26.2535 44.726V65.6118Z" fill="#757575"/>
    <path d="M64.2033 68.5915L61.2381 69.9997H5.37609C4.83182 69.9997 4.39062 69.5583 4.39062 69.0139V66.601C4.39062 66.0566 4.83182 65.6152 5.37609 65.6152H61.2381L64.2033 67.0234V68.5915Z" fill="#5C9EFE"/>
    <path d="M61.2363 65.6152V69.9997H64.6238C65.1681 69.9997 65.6093 69.5583 65.6093 69.0139V66.601C65.6093 66.0566 65.1681 65.6152 64.6238 65.6152H61.2363Z" fill="#5C9EFE"/>
    <path d="M50.3793 30.604H23.9925C22.8263 30.604 21.8809 29.6583 21.8809 28.4917V23.9678C21.8809 22.8012 22.8263 21.8555 23.9925 21.8555H30.6266L37.186 23.2637L48.1181 21.8555H50.3793C51.5455 21.8555 52.491 22.8012 52.491 23.9678V28.4917C52.491 29.6583 51.5455 30.604 50.3793 30.604Z" fill="#FFF08A"/>
    <path d="M30.627 21.8555V24.0426C30.627 25.2505 31.6059 26.2296 32.8134 26.2296C34.0209 26.2296 34.9998 27.2088 34.9998 28.4167V32.8047C34.9998 34.0126 35.9787 34.9918 37.1862 34.9918C38.3937 34.9918 39.3726 34.0126 39.3726 32.8047C39.3726 31.5968 40.3515 30.6176 41.559 30.6176C42.7665 30.6176 43.7454 31.5968 43.7454 32.8047V37.179C43.7454 38.387 44.7243 39.3661 45.9318 39.3661C47.1393 39.3661 48.1182 38.387 48.1182 37.179V21.8691L30.627 21.8555Z" fill="#8CE0FF"/>
    <path d="M62.0156 2.96088L59.2 4.36908H51.2902C50.7459 4.36908 50.3047 3.92775 50.3047 3.38334V0.990625C50.3047 0.446211 50.7459 0.00488281 51.2902 0.00488281H59.2L62.0156 1.41309V2.96088Z" fill="#5C9EFE"/>
    <path d="M59.2012 0.00488281V4.36922H62.4391C62.9834 4.36922 63.4245 3.92789 63.4245 3.38348V0.990625C63.4245 0.446211 62.9834 0.00488281 62.4391 0.00488281H59.2012Z" fill="#5C9EFE"/>
  </g>
  <defs>
    <clipPath id="clip0_5569_2693">
      <rect width="70" height="70" fill="white"/>
    </clipPath>
  </defs>
</svg>
