<svg xmlns="http://www.w3.org/2000/svg" width="70" height="70" viewBox="0 0 70 70" fill="none">
  <g clip-path="url(#clip0_5569_2887)">
    <path d="M30.8984 2.05078H4.10156V55.6445C4.10156 59.0424 6.85603 61.7969 10.2539 61.7969H30.8984H51.543C54.9408 61.7969 57.6953 59.0424 57.6953 55.6445V2.05078H30.8984Z" fill="#F0F7FF"/>
    <path d="M57.6953 55.6445V2.05078H30.8984V61.7969H51.543C54.9408 61.7969 57.6953 59.0424 57.6953 55.6445Z" fill="#DFE7F4"/>
    <path d="M63.8477 36.9139H57.6953V36.4673C57.6953 32.8184 58.4984 29.1854 59.2855 26.1133C59.5919 24.9137 59.7461 23.718 59.7461 22.5585C59.7461 14.9341 53.1892 8.97602 52.9108 8.72568L51.543 7.5L50.1751 8.72568C49.8967 8.97602 43.3398 14.9341 43.3398 22.5585C43.3398 23.718 43.4941 24.9137 43.8004 26.1154C44.5875 29.1855 45.3906 32.8184 45.3906 36.4654V36.9139H39.1016C35.709 36.9139 32.9492 39.6737 32.9492 43.0663V45.1171L37.0508 49.2186H51.543H65.8984L70 45.1171V43.0663C70 39.6737 67.2402 36.9139 63.8477 36.9139Z" fill="#FFB64C"/>
    <path d="M70 45.1171V43.0663C70 39.6737 67.2402 36.9139 63.8477 36.9139H57.6953V36.4673C57.6953 32.8184 58.4984 29.1854 59.2855 26.1133C59.5919 24.9137 59.7461 23.718 59.7461 22.5585C59.7461 14.9341 53.1892 8.97602 52.9108 8.72568L51.543 7.5V49.2186H65.8984L70 45.1171Z" fill="#FF9100"/>
    <path d="M51.5431 45.1172H32.9494V59.7461C32.9494 60.4844 32.8262 61.1408 32.5801 61.7969L35.4102 63.8477H51.5431H67.105L70.0001 59.7461V45.1172H51.5431Z" fill="#FFE1BA"/>
    <path d="M70 59.7461V45.1172H51.543V63.8477H67.1048L70 59.7461Z" fill="#FFBFAB"/>
    <path d="M30.8984 0H0V4.10156H30.8984H61.7969V0H30.8984Z" fill="#DFE7F4"/>
    <path d="M30.8984 0H61.7969V4.10156H30.8984V0Z" fill="#C7CFE1"/>
    <path d="M30.8984 8.20312C27.5059 8.20312 24.7461 10.9629 24.7461 14.3555C24.7461 16.9653 26.3858 19.1866 28.6837 20.0789C27.866 27.2232 21.8515 32.8125 14.4922 32.8125H0V36.9141H14.4922C21.688 36.9141 27.8816 32.7599 30.8984 26.7303C31.9009 24.7274 32.5537 22.5181 32.7748 20.1845C35.2464 19.3855 37.0508 17.0897 37.0508 14.3555C37.0508 10.9629 34.291 8.20312 30.8984 8.20312Z" fill="#666680"/>
    <path d="M37.0508 14.3555C37.0508 10.9629 34.291 8.20312 30.8984 8.20312V26.7303C31.9009 24.7274 32.5537 22.5181 32.7748 20.1845C35.2464 19.3855 37.0508 17.0897 37.0508 14.3555Z" fill="#484866"/>
    <path d="M63.8477 53.5938C60.4432 53.5938 57.6953 56.3417 57.6953 59.7461C57.6953 60.4844 57.8592 61.1408 58.0646 61.7969H51.543H32.5799C31.7598 64.1759 29.463 65.8984 26.7969 65.8984V70H51.543H59.7461C65.4062 70 70 65.4062 70 59.7461C70 56.3417 67.2521 53.5938 63.8477 53.5938Z" fill="#55A1FF"/>
    <path d="M70 59.7461C70 56.3417 67.2521 53.5938 63.8477 53.5938C60.4432 53.5938 57.6953 56.3417 57.6953 59.7461C57.6953 60.4844 57.8592 61.1408 58.0646 61.7969H51.543V70H59.7461C65.4062 70 70 65.4062 70 59.7461Z" fill="#55A1FF"/>
  </g>
  <defs>
    <clipPath id="clip0_5569_2887">
      <rect width="70" height="70" fill="white"/>
    </clipPath>
  </defs>
</svg>
