<svg xmlns="http://www.w3.org/2000/svg" width="70" height="70" viewBox="0 0 70 70" fill="none">
  <g clip-path="url(#clip0_5569_2740)">
    <path d="M64.6326 1.11727C64.6326 0.500254 64.1324 0 63.5153 0H46.398L28.3491 4.18852L8.81172 6.65205L5.36914 18.9381V68.8829C5.36914 69.4999 5.86939 70.0001 6.48641 70.0001H63.5153C64.1324 70.0001 64.6326 69.4999 64.6326 68.8829V1.11727Z" fill="#FAF7F8"/>
    <path d="M63.5153 0H59.7539C60.3709 0 60.8712 0.500254 60.8712 1.11727V68.8827C60.8712 69.4997 60.3709 70 59.7539 70H63.5153C64.1323 70 64.6326 69.4997 64.6326 68.8827V1.11727C64.6326 0.500254 64.1323 0 63.5153 0Z" fill="#F0EEF0"/>
    <path d="M46.398 0H6.48641C5.86939 0 5.36914 0.500254 5.36914 1.11727V18.938H12.0759C12.4028 18.938 12.6835 18.7053 12.7442 18.384L13.9888 11.7871C14.106 11.1662 14.9326 11.0268 15.2469 11.5747L17.95 16.2858C18.0713 16.4972 18.2963 16.6275 18.5398 16.6275H25.5538L27.6635 23.3096C27.7527 23.5926 28.0152 23.785 28.3119 23.785H36.0267C36.4278 23.785 36.7417 23.4396 36.7037 23.0404L35.9202 14.8241H42.4742C42.7915 14.8241 43.0666 14.6047 43.1373 14.2953L46.398 0Z" fill="#6BB0E6"/>
    <path d="M43.0958 0L39.835 14.295C39.7644 14.6044 39.4892 14.8239 39.1719 14.8239H42.4745C42.7918 14.8239 43.0669 14.6044 43.1374 14.295L46.3984 0H43.0958Z" fill="#0C90DB"/>
    <path d="M25.5532 17.6841C25.0989 17.6841 24.6793 17.3888 24.5419 16.9312L21.5468 6.95595C21.3792 6.39718 21.6961 5.80819 22.2547 5.64044C22.8143 5.47309 23.4025 5.78973 23.5704 6.34837L26.5655 16.3236C26.7331 16.8824 26.4162 17.4714 25.8575 17.6391C25.7561 17.6696 25.6537 17.6841 25.5532 17.6841Z" fill="#0C90DB"/>
    <path d="M35.9195 15.8799C35.3811 15.8799 34.9212 15.4704 34.8692 14.9235L34.247 8.38605C34.1918 7.80527 34.6177 7.2897 35.1984 7.23433C35.7794 7.17896 36.2949 7.60511 36.3502 8.18589L36.9724 14.7234C37.0276 15.3042 36.6017 15.8197 36.0209 15.8751C35.9869 15.8784 35.9528 15.8799 35.9195 15.8799Z" fill="#0C90DB"/>
    <path d="M45.8766 45.5599C45.2931 45.5599 44.8203 45.087 44.8203 44.5036V38.0847C44.8203 36.4321 46.1648 35.0877 47.8173 35.0877H55.1106C55.5981 35.0877 55.9949 34.691 55.9949 34.2034V30.8885C55.9949 30.4009 55.5983 30.0042 55.1106 30.0042H49.0036C48.4201 30.0042 47.9473 29.5313 47.9473 28.9479C47.9473 28.3645 48.4203 27.8916 49.0036 27.8916H55.1106C56.7631 27.8916 58.1076 29.2361 58.1076 30.8886V34.2035C58.1076 35.856 56.7631 37.2005 55.1106 37.2005H47.8173C47.3298 37.2005 46.933 37.5971 46.933 38.0848V44.5038C46.9329 45.087 46.46 45.5599 45.8766 45.5599Z" fill="#395A61"/>
    <path d="M47.887 65.3155C47.887 65.725 47.5551 66.0568 47.1457 66.0568H44.5968C44.1873 66.0568 43.8555 65.7249 43.8555 65.3155V41.4054C43.8555 40.9959 44.1874 40.6641 44.5968 40.6641H47.1457C47.5552 40.6641 47.887 40.996 47.887 41.4054V65.3155Z" fill="#4F6C77"/>
    <path d="M42.2123 30.0042H38.9547C38.3712 30.0042 37.8984 29.5313 37.8984 28.9479C37.8984 28.3645 38.3713 27.8916 38.9547 27.8916H42.2123C42.7958 27.8916 43.2686 28.3645 43.2686 28.9479C43.2686 29.5313 42.7958 30.0042 42.2123 30.0042Z" fill="#395A61"/>
    <path d="M27.2885 66.0859C27.2885 68.2478 25.5359 70.0004 23.374 70.0004H19.4243C17.2624 70.0004 15.5098 68.2478 15.5098 66.0859V58.0154C15.5098 57.5928 15.8524 57.25 16.2751 57.25H26.5231C26.9457 57.25 27.2885 57.5926 27.2885 58.0154V66.0859Z" fill="#4F6C77"/>
    <path d="M24.6098 57.25V66.0859C24.6098 68.2478 22.8572 70.0004 20.6953 70.0004H23.3749C25.5368 70.0004 27.2894 68.2478 27.2894 66.0859V58.0154C27.2894 57.5928 26.9468 57.25 26.524 57.25H24.6098Z" fill="#395A61"/>
    <path d="M21.3998 64.6815C19.8698 64.6815 18.625 63.4367 18.625 61.9067V60.9196C18.625 60.3361 19.0979 59.8633 19.6813 59.8633C20.2648 59.8633 20.7376 60.3362 20.7376 60.9196V61.9067C20.7376 62.2717 21.0347 62.5688 21.3997 62.5688C21.7647 62.5688 22.0617 62.2717 22.0617 61.9067V60.9196C22.0617 60.3361 22.5346 59.8633 23.118 59.8633C23.7014 59.8633 24.1743 60.3362 24.1743 60.9196V61.9067C24.1746 63.4367 22.9297 64.6815 21.3998 64.6815Z" fill="#395A61"/>
    <path d="M51.4636 30.4872C51.4636 30.9795 51.0644 31.3787 50.5721 31.3787H41.1806C40.6883 31.3787 40.2891 30.9795 40.2891 30.4872V27.4081C40.2891 26.9158 40.6883 26.5166 41.1806 26.5166H50.5721C51.0644 26.5166 51.4636 26.9158 51.4636 27.4081V30.4872Z" fill="#6BB0E6"/>
    <path d="M50.5721 26.5166H48.0137C48.506 26.5166 48.9052 26.9158 48.9052 27.4081V30.4872C48.9052 30.9795 48.506 31.3787 48.0137 31.3787H50.5721C51.0646 31.3787 51.4636 30.9795 51.4636 30.4872V27.4081C51.4638 26.9157 51.0646 26.5166 50.5721 26.5166Z" fill="#0C90DB"/>
  </g>
  <defs>
    <clipPath id="clip0_5569_2740">
      <rect width="70" height="70" fill="white"/>
    </clipPath>
  </defs>
</svg>
